<svg width="22" height="25" viewBox="0 0 22 25" fill="none" xmlns="http://www.w3.org/2000/svg">
<path d="M20.6259 19.4826C20.2476 20.356 19.7999 21.16 19.2812 21.8992C18.5741 22.9069 17.9952 23.6044 17.549 23.9917C16.8573 24.6275 16.1163 24.9531 15.3227 24.9716C14.7531 24.9716 14.066 24.8096 13.2663 24.4809C12.464 24.1537 11.7266 23.9917 11.0524 23.9917C10.3454 23.9917 9.58702 24.1537 8.77588 24.4809C7.9635 24.8096 7.30906 24.9809 6.8087 24.9979C6.04773 25.0303 5.28924 24.6954 4.53214 23.9917C4.04891 23.5704 3.44449 22.8482 2.72042 21.8251C1.94356 20.7326 1.30486 19.4656 0.804502 18.0212C0.26863 16.4611 0 14.9503 0 13.4877C0 11.8123 0.362188 10.3673 1.08764 9.15636C1.65779 8.18371 2.41628 7.41644 3.3656 6.85319C4.31491 6.28994 5.34065 6.00291 6.44528 5.98454C7.0497 5.98454 7.84231 6.17142 8.82729 6.53869C9.80949 6.9072 10.4402 7.09408 10.7167 7.09408C10.9234 7.09408 11.624 6.87557 12.8117 6.43993C13.9348 6.03593 14.8827 5.86865 15.6593 5.93455C17.7636 6.10429 19.3445 6.93343 20.3958 8.42722C18.5139 9.567 17.5829 11.1634 17.6015 13.2113C17.6185 14.8065 18.1974 16.1339 19.3352 17.1879C19.8509 17.6771 20.4267 18.0552 21.0674 18.3237C20.9285 18.7264 20.7818 19.1122 20.6259 19.4826ZM15.7998 0.500143C15.7998 1.75043 15.3428 2.91782 14.4319 3.99834C13.3327 5.28287 12.0031 6.02513 10.5613 5.908C10.543 5.75801 10.5323 5.60014 10.5323 5.43425C10.5323 4.23398 11.0551 2.94945 11.9834 1.89917C12.4469 1.3674 13.0363 0.925238 13.7511 0.572516C14.4644 0.225057 15.139 0.0329053 15.7735 0C15.7921 0.167144 15.7998 0.334298 15.7998 0.500126V0.500143Z" fill="#B3B3B3"/>
</svg>
