<svg width="70" height="70" viewBox="0 0 70 70" fill="none" xmlns="http://www.w3.org/2000/svg">
<g opacity="0.5">
<circle cx="35" cy="35" r="35" fill="#EB266F"/>
<path d="M48.136 24.281L33.4979 37.6417L28.1814 31.8416C27.6636 31.2891 26.8005 31.2547 26.2134 31.738C25.661 32.2558 25.6265 33.1189 26.1098 33.706L32.3587 40.5417C32.6349 40.8524 33.0147 40.9906 33.3944 40.9906C33.7398 40.9906 34.0504 40.8871 34.3266 40.6453L50.0004 26.3179C50.5529 25.8001 50.5873 24.9371 50.104 24.3499C49.5862 23.7975 48.7232 23.763 48.1363 24.2808L48.136 24.281Z" fill="white"/>
<path d="M34.4999 49C42.5094 49 48.9999 42.5095 48.9999 34.5C48.9999 33.8096 48.9655 33.1536 48.8619 32.4976C48.7584 31.7381 48.0679 31.2203 47.3084 31.3239C46.5489 31.4274 46.0311 32.1178 46.1347 32.8774C46.2038 33.4298 46.2382 33.9823 46.2382 34.5C46.2382 40.9559 40.9561 46.2381 34.5001 46.2381C28.0442 46.2381 22.762 40.9559 22.762 34.5C22.762 28.044 28.0442 22.7619 34.5001 22.7619C37.2621 22.7619 39.9549 23.7286 42.0608 25.5239C42.6477 26.0072 43.5108 25.9381 43.9941 25.3512C44.4774 24.7643 44.4083 23.9012 43.8214 23.4179C41.2324 21.2081 37.918 20 34.5 20C26.4905 20 20 26.4905 20 34.5C20 42.5095 26.4905 49 34.5 49L34.4999 49Z" fill="white"/>
</g>
</svg>
