<svg width="51" height="50" viewBox="0 0 51 50" fill="none" xmlns="http://www.w3.org/2000/svg">
<circle cx="25.667" cy="25" r="25" fill="#EB266F"/>
<path d="M36.3811 36.9996H27.2568V27.1094H37.0323V36.3402C37.0323 36.7043 36.7404 36.9997 36.3809 36.9997L36.3811 36.9996Z" fill="white"/>
<path d="M15.6895 36.9987C15.33 36.9987 15.0381 36.7033 15.0381 36.3393V27.1084H24.8136V36.9986L15.6895 36.9987Z" fill="white"/>
<path d="M38.4174 24.6365H27.2568V18.8672H38.4174C38.7769 18.8672 39.0688 19.1626 39.0688 19.5266V23.9775C39.069 24.3409 38.7771 24.6365 38.4176 24.6365L38.4174 24.6365Z" fill="white"/>
<path d="M13.6514 24.6367C13.292 24.6367 13 24.3412 13 23.9775V19.5266C13 19.1626 13.2919 18.8672 13.6514 18.8672H24.812V24.6365L13.6514 24.6367Z" fill="white"/>
<path d="M20.8979 18.8667H31.1704C32.739 18.1361 33.9739 16.9953 34.5633 15.8903C35.1152 14.8561 35.1417 13.8582 34.6253 13.0633C34.0749 12.2604 33.0635 11.8 31.8523 11.8C29.6278 11.8 27.087 13.3341 26.0346 16.6411C24.9816 13.3339 22.441 11.7998 20.2164 11.7998C19.0047 11.7998 17.9937 12.2601 17.4315 13.0812C16.927 13.8584 16.9532 14.8559 17.5054 15.8899C18.0948 16.9949 19.3294 18.1361 20.8981 18.8667H20.8979ZM31.8516 13.448C32.5015 13.448 33.0521 13.6604 33.2746 13.9848C33.4988 14.3309 33.2477 14.8848 33.1291 15.1068C32.3256 16.6111 29.8688 18.1621 27.3615 17.9784C28.0012 14.8724 30.0719 13.448 31.8517 13.448H31.8516ZM18.7809 14.0032C19.0159 13.6606 19.566 13.4482 20.216 13.4482C21.9957 13.4482 24.0664 14.8724 24.7061 17.9784C24.5636 17.989 24.4214 17.9939 24.2787 17.9939H24.2779C21.8999 17.9939 19.6957 16.5258 18.9381 15.1066C18.8202 14.8848 18.569 14.3311 18.781 14.0032L18.7809 14.0032Z" fill="white"/>
</svg>
