<svg width="27" height="26" viewBox="0 0 27 26" fill="none" xmlns="http://www.w3.org/2000/svg">
<path d="M23.3811 25.9996H14.2568V16.1094H24.0323V25.3402C24.0323 25.7043 23.7404 25.9997 23.3809 25.9997L23.3811 25.9996Z" fill="#EB266F"/>
<path d="M2.68947 25.9987C2.33005 25.9987 2.03809 25.7033 2.03809 25.3393V16.1084H11.8136V25.9986L2.68947 25.9987Z" fill="#EB266F"/>
<path d="M25.4174 13.6355H14.2568V7.86621H25.4174C25.7769 7.86621 26.0688 8.16158 26.0688 8.52566V12.9765C26.069 13.34 25.7771 13.6356 25.4176 13.6356L25.4174 13.6355Z" fill="#EB266F"/>
<path d="M0.651388 13.6358C0.291961 13.6358 0 13.3402 0 12.9765V8.52566C0 8.16161 0.291945 7.86621 0.651388 7.86621H11.812V13.6355L0.651388 13.6358Z" fill="#EB266F"/>
<path d="M7.89786 7.8667H18.1704C19.739 7.13613 20.9739 5.99531 21.5633 4.89027C22.1152 3.85614 22.1417 2.85823 21.6253 2.06329C21.0749 1.26035 20.0635 0.800014 18.8523 0.800014C16.6278 0.800014 14.087 2.3341 13.0346 5.64109C11.9816 2.33394 9.44095 0.799805 7.21638 0.799805C6.00474 0.799805 4.99373 1.26014 4.43146 2.08124C3.92696 2.85843 3.95323 3.85593 4.5054 4.88985C5.09478 5.99489 6.32944 7.13613 7.89806 7.8667H7.89786ZM18.8516 2.44802C19.5015 2.44802 20.0521 2.6604 20.2746 2.98481C20.4988 3.33088 20.2477 3.88482 20.1291 4.1068C19.3256 5.61105 16.8688 7.16214 14.3615 6.97836C15.0012 3.87236 17.0719 2.44802 18.8517 2.44802H18.8516ZM5.78088 3.00318C6.01585 2.66058 6.56602 2.44823 7.21596 2.44823C8.99572 2.44823 11.0664 3.87236 11.7061 6.97836C11.5636 6.98899 11.4214 6.9939 11.2787 6.9939H11.2779C8.89991 6.9939 6.69567 5.5258 5.93815 4.10658C5.82016 3.8848 5.56902 3.33107 5.78096 3.00317L5.78088 3.00318Z" fill="#EB266F"/>
</svg>
