<svg width="70" height="70" viewBox="0 0 70 70" fill="none" xmlns="http://www.w3.org/2000/svg">
<circle cx="35" cy="35" r="35" fill="#EB266F"/>
<path d="M48.8942 25H21.0645C19.9084 25 19 25.9084 19 27.0645V43.5806C19 44.7368 19.9084 45.6452 21.0645 45.6452H48.9355C50.0916 45.6452 51 44.7368 51 43.5806V27.0645C50.9585 25.9084 50.0501 25 48.894 25H48.8942ZM48.8942 43.5806H21.0645V27.0645H48.9355V43.5806H48.8942Z" fill="white"/>
<path d="M37.5811 32.3087H45.3024C45.8804 32.3087 46.3346 31.8544 46.3346 31.2764C46.3346 30.6983 45.8804 30.2441 45.3024 30.2441H37.5811C37.003 30.2441 36.5488 30.6983 36.5488 31.2764C36.5488 31.8544 37.003 32.3087 37.5811 32.3087Z" fill="white"/>
<path d="M37.5811 36.3546H43.1139C43.692 36.3546 44.1462 35.9003 44.1462 35.3223C44.1462 34.7442 43.692 34.29 43.1139 34.29H37.5811C37.003 34.29 36.5488 34.7442 36.5488 35.3223C36.5488 35.9003 37.003 36.3546 37.5811 36.3546Z" fill="white"/>
<path d="M24.2853 40.442C24.2853 41.02 24.7395 41.4742 25.3176 41.4742C25.8956 41.4742 26.3498 41.02 26.3498 40.442C26.3498 38.7078 27.7536 37.304 29.4878 37.304C31.222 37.304 32.6258 38.7078 32.6258 40.442C32.6258 41.02 33.08 41.4742 33.6581 41.4742C34.2361 41.4742 34.6903 41.02 34.6903 40.442C34.6903 38.4601 33.5754 36.7671 31.9239 35.8999C32.7496 35.198 33.2864 34.1657 33.2864 33.0096C33.2864 30.9039 31.5935 29.2109 29.4877 29.2109C27.382 29.2109 25.689 30.9039 25.689 33.0096C25.689 34.1658 26.2259 35.198 27.0516 35.8999C25.3998 36.7671 24.2852 38.5013 24.2852 40.442H24.2853ZM29.4466 31.2755C30.3962 31.2755 31.1808 32.0601 31.1808 33.0097C31.1808 33.9593 30.3962 34.7439 29.4466 34.7439C28.497 34.7439 27.7124 33.9593 27.7124 33.0097C27.7124 32.0601 28.4967 31.2755 29.4466 31.2755Z" fill="white"/>
</svg>
