<svg width="24" height="28" viewBox="0 0 24 28" fill="none" xmlns="http://www.w3.org/2000/svg">
<path d="M23.2942 4.19992C21.2545 4.19992 19.0589 3.10473 19.0589 0.699934C19.0589 0.313461 18.7425 0 18.3531 0H5.64696C5.25724 0 4.94113 0.313717 4.94113 0.699934C4.94113 3.10473 2.74555 4.19992 0.705831 4.19992C0.316102 4.19992 0 4.51363 0 4.89985C0 14.7304 9.61704e-07 23.221 11.7342 27.9485C11.8192 27.9829 11.9095 28 11.9999 28C12.0902 28 12.1806 27.9829 12.2658 27.9485C24 23.2212 24 14.7311 24 4.89985C24 4.51362 23.6839 4.19992 23.2942 4.19992H23.2942ZM15.8823 17.1499C15.8823 17.5363 15.5659 17.8498 15.1765 17.8498L8.82343 17.85C8.4337 17.85 8.11759 17.5363 8.11759 17.1501L8.11735 12.9499C8.11735 12.5635 8.43371 12.25 8.82318 12.25H9.17623V10.8501C9.17623 9.3062 10.4429 8.05008 11.9999 8.05008C13.5568 8.05008 14.8235 9.3062 14.8235 10.8501V12.25H15.1766C15.5663 12.25 15.8824 12.5637 15.8824 12.9499L15.8823 17.1499ZM13.4115 10.8499V12.2498H10.5878V10.8499C10.5878 10.0777 11.2211 9.45002 11.9995 9.45002C12.7784 9.44977 13.4114 10.0777 13.4114 10.8499H13.4115Z" fill="#EB266F"/>
</svg>
