<svg width="51" height="50" viewBox="0 0 51 50" fill="none" xmlns="http://www.w3.org/2000/svg">
<circle cx="25.667" cy="25" r="25" fill="#EB266F"/>
<path d="M36.9612 15.1999C34.9215 15.1999 32.7259 14.1047 32.7259 11.6999C32.7259 11.3135 32.4095 11 32.0201 11H19.314C18.9242 11 18.6081 11.3137 18.6081 11.6999C18.6081 14.1047 16.4125 15.1999 14.3728 15.1999C13.9831 15.1999 13.667 15.5136 13.667 15.8999C13.667 25.7304 13.667 34.221 25.4012 38.9485C25.4862 38.9829 25.5765 39 25.6669 39C25.7572 39 25.8476 38.9829 25.9328 38.9485C37.667 34.2212 37.667 25.7311 37.667 15.8999C37.667 15.5136 37.3509 15.1999 36.9612 15.1999H36.9612ZM29.5493 28.1499C29.5493 28.5363 29.2329 28.8498 28.8435 28.8498L22.4904 28.85C22.1007 28.85 21.7846 28.5363 21.7846 28.1501L21.7843 23.9499C21.7843 23.5635 22.1007 23.25 22.4902 23.25H22.8432V21.8501C22.8432 20.3062 24.1099 19.0501 25.6669 19.0501C27.2238 19.0501 28.4905 20.3062 28.4905 21.8501V23.25H28.8435C29.2333 23.25 29.5494 23.5637 29.5494 23.9499L29.5493 28.1499ZM27.0785 21.8499V23.2498H24.2548V21.8499C24.2548 21.0777 24.8881 20.45 25.6665 20.45C26.4454 20.4498 27.0784 21.0777 27.0784 21.8499H27.0785Z" fill="white"/>
</svg>
