<svg width="29" height="29" viewBox="0 0 29 29" fill="none" xmlns="http://www.w3.org/2000/svg">
<path fill-rule="evenodd" clip-rule="evenodd" d="M14.5 29C22.5081 29 29 22.5081 29 14.5C29 6.49187 22.5081 0 14.5 0C6.49187 0 0 6.49187 0 14.5C0 22.5081 6.49187 29 14.5 29ZM17.6085 22.57C17.9689 22.3593 18.1268 22.0766 18.1268 21.6496L18.1268 18.5774C18.1268 18.1504 17.9683 17.8683 17.6082 17.6545L14.8735 16.0341C14.7614 15.9676 14.6309 15.9302 14.496 15.9302C14.3691 15.9302 14.2383 15.9633 14.1155 16.0362C13.8759 16.1802 13.7419 16.4392 13.7419 16.7055L13.7457 20.1136C13.7457 20.5412 14.083 20.888 14.4996 20.888C14.9161 20.888 15.254 20.5412 15.254 20.1136V18.0468L16.6179 18.8561V21.3711L11.627 24.3322L9.50864 23.0753V6.92528L11.9924 5.45186C12.2244 5.31976 12.3814 5.06588 12.3814 4.77436C12.3814 4.34679 12.0436 4 11.627 4C11.485 4 11.3521 4.04039 11.2385 4.11053L8.51865 5.72425C8.1586 5.93803 8 6.22014 8 6.64711V23.3544C8 23.7814 8.15858 24.0635 8.51865 24.2773L11.108 25.8136C11.2882 25.9204 11.4578 25.9739 11.6273 25.9739C11.7969 25.9739 11.9664 25.9204 12.1466 25.8136L17.6085 22.57ZM11.3912 7.428C11.0311 7.64182 10.8729 7.92451 10.8729 8.35147V8.35207V21.8184C10.8729 22.246 11.2107 22.5928 11.6273 22.5928C12.0439 22.5928 12.3818 22.246 12.3818 21.8184V8.62993L17.373 5.66882L19.4914 6.92572V12.8495L17.0076 14.3229C16.7756 14.455 16.6186 14.7089 16.6186 15.0004C16.6186 15.4279 16.9564 15.7747 17.373 15.7747C17.515 15.7747 17.6479 15.7343 17.7615 15.6642L20.4814 14.0505C20.8414 13.8367 21 13.5546 21 13.1276V6.64665C21 6.21969 20.8414 5.93758 20.4811 5.72379L17.8917 4.18751C17.7115 4.08063 17.5419 4.02719 17.3724 4.02719C17.2028 4.02719 17.0333 4.08063 16.8531 4.18751L11.3912 7.428ZM16.6179 11.144L14.1345 12.6181C13.9025 12.7502 13.7453 13.004 13.7453 13.2955C13.7453 13.7231 14.0832 14.0699 14.4998 14.0699C14.6418 14.0699 14.7747 14.0295 14.888 13.9594L17.6078 12.3457C17.9682 12.1319 18.1274 11.8498 18.1271 11.4228L18.1235 8.1814C18.1235 8.04993 18.091 7.91692 18.0223 7.79486C17.8827 7.54646 17.6291 7.40768 17.3685 7.40768C17.2404 7.40768 17.1108 7.44107 16.9919 7.51153L14.1344 9.20906C13.9049 9.34572 13.7454 9.59532 13.7454 9.88683C13.7454 10.3144 14.0833 10.6612 14.4999 10.6612C14.6419 10.6612 14.7747 10.6208 14.888 10.5507L16.6179 9.52425V11.144ZM20.9997 16.7037C20.9997 16.2761 20.6618 15.9296 20.2452 15.9296C19.8286 15.9296 19.4907 16.2764 19.4907 16.704V23.0747L17.007 24.5481C16.775 24.6802 16.6179 24.9341 16.6179 25.2256C16.6179 25.6532 16.9558 26 17.3724 26C17.5144 26 17.6473 25.9596 17.7609 25.8895L20.4807 24.2758C20.8411 24.062 20.9997 23.7799 20.9997 23.3529V16.7037Z" fill="#EB266F"/>
</svg>
