<svg width="29" height="29" viewBox="0 0 29 29" fill="none" xmlns="http://www.w3.org/2000/svg">
<path fill-rule="evenodd" clip-rule="evenodd" d="M14.5 29C22.5081 29 29 22.5081 29 14.5C29 6.49187 22.5081 0 14.5 0C6.49187 0 0 6.49187 0 14.5C0 22.5081 6.49187 29 14.5 29ZM9.76136 22H14.25C15.7273 22 16.982 21.7088 18.0142 21.1264C19.0464 20.5393 19.8324 19.7012 20.3722 18.6122C20.9119 17.5185 21.1818 16.214 21.1818 14.6989C21.1818 13.1932 20.9143 11.9006 20.3793 10.821C19.8442 9.73674 19.0748 8.90578 18.071 8.32812C17.0672 7.74574 15.8598 7.45455 14.4489 7.45455H9.76136V22ZM14.1364 20.4375H11.5227V9.01705H14.3352C15.4716 9.01705 16.4209 9.24669 17.1832 9.70597C17.9455 10.1605 18.5185 10.8139 18.902 11.6662C19.2855 12.5137 19.4773 13.5246 19.4773 14.6989C19.4773 15.8826 19.2831 16.9029 18.8949 17.7599C18.5066 18.617 17.9171 19.2775 17.1264 19.7415C16.3357 20.2055 15.339 20.4375 14.1364 20.4375Z" fill="#EB266F"/>
</svg>
