<svg width="29" height="29" viewBox="0 0 29 29" fill="none" xmlns="http://www.w3.org/2000/svg">
<path fill-rule="evenodd" clip-rule="evenodd" d="M14.5 29C22.5081 29 29 22.5081 29 14.5C29 6.49187 22.5081 0 14.5 0C6.49187 0 0 6.49187 0 14.5C0 22.5081 6.49187 29 14.5 29ZM19.0071 10.8632H22.5789C22.8117 10.8632 23.0001 11.0503 23 11.2812V13.8848C23 14.1153 22.8112 14.3024 22.5784 14.3024H21.041V23.5824C21.041 23.8129 20.8523 24 20.6194 24H8.38072C8.14785 24 7.95909 23.8129 7.95896 23.582V14.302H6.42163C6.18889 14.302 6 14.1151 6 13.8844V11.2808C6 11.0503 6.18875 10.8632 6.42163 10.8632L10.5415 10.8631C10.4282 10.7962 10.315 10.727 10.2019 10.6519C8.3369 9.41442 7.45571 7.70444 8.15258 6.67423C8.5092 6.14637 9.20376 5.9166 10.1085 6.02709C10.911 6.12529 11.8123 6.48388 12.6466 7.03735C13.5441 7.63276 14.2109 8.33788 14.5863 9.02381C14.5961 9.01048 14.6057 8.99714 14.6152 8.9838C14.6334 8.95834 14.6515 8.93288 14.672 8.90742C15.1462 8.32081 15.8788 7.78467 16.735 7.3977C18.6553 6.52945 20.4741 6.67937 20.9659 7.747C21.4086 8.7074 20.5774 9.98431 19.0071 10.8632ZM13.9082 13.4668H15.0926V11.6986H13.9082V13.4668ZM17.0854 8.15749C16.3471 8.49136 15.7238 8.9431 15.3306 9.42965C15.0109 9.82504 14.8861 10.2045 14.9969 10.4449C15.1076 10.6854 15.479 10.8409 15.9899 10.8607C16.6187 10.884 17.3717 10.715 18.11 10.3811C19.5985 9.70839 20.4401 8.61855 20.1985 8.09372C20.0763 7.82903 19.6643 7.6766 19.095 7.6766C18.5353 7.6766 17.8235 7.82388 17.0854 8.15749ZM9.67954 6.83509C9.2806 6.83509 8.98725 6.94081 8.85326 7.13882C8.4978 7.66416 9.19973 8.98122 10.6711 9.95782C12.1423 10.934 13.6395 11.0758 13.9947 10.5501C14.3502 10.0248 13.6483 8.70765 12.1768 7.73144C11.4504 7.24942 10.6791 6.93855 10.005 6.85619C9.89024 6.84212 9.78147 6.83509 9.67954 6.83509ZM13.0647 11.6986H6.84344V13.4669H13.0647V11.6986ZM13.0641 14.3025H8.8024V23.1646H13.0641V14.3025ZM13.9079 14.3025V23.1643L15.0923 23.1646V14.3025H13.9079ZM15.9359 23.1643H20.198L20.1976 14.3025H15.9359V23.1643ZM15.9357 13.4667H22.1569V11.6985H15.9357V13.4667Z" fill="#EB266F"/>
</svg>
