<svg width="92" height="92" viewBox="0 0 92 92" fill="none" xmlns="http://www.w3.org/2000/svg">
<path d="M46 0C20.6277 0 0 20.6277 0 46C0 71.3723 20.6277 92 46 92C71.3723 92 92 71.3723 92 46C92 20.6277 71.3723 0 46 0ZM46 89.125C22.2098 89.125 2.875 69.7902 2.875 46C2.875 22.2098 22.2098 2.875 46 2.875C69.7902 2.875 89.125 22.2098 89.125 46C89.125 69.7902 69.7902 89.125 46 89.125Z" fill="white"/>
<path d="M46 11.5C26.9527 11.5 11.5 26.953 11.5 46C11.5 65.047 26.953 80.5 46 80.5C65.047 80.5 80.5 65.047 80.5 46C80.5 26.953 65.047 11.5 46 11.5ZM46 77.625C28.5348 77.625 14.375 63.4655 14.375 46C14.375 28.5345 28.5345 14.375 46 14.375C63.4655 14.375 77.625 28.5345 77.625 46C77.625 63.4655 63.4655 77.625 46 77.625Z" fill="white"/>
<path d="M52.8997 38.6699H39.0997C38.6684 38.6699 38.2372 38.8855 38.0215 39.173C35.2185 42.5511 21.4911 59.8008 26.1621 65.9828C29.3246 70.1516 38.5246 71.6609 45.9996 71.6609C53.4746 71.6609 62.6746 70.1515 65.8371 65.9828C70.5808 59.7298 56.7808 42.5524 53.9776 39.173C53.6901 38.8855 53.3307 38.6699 52.8995 38.6699H52.8997ZM63.5372 64.3297C61.4527 67.061 54.4091 68.8577 45.9997 68.8577C37.5902 68.8577 30.5466 67.0608 28.4622 64.3297C26.0184 61.1672 33.4934 49.3078 39.8184 41.5449H52.2529C58.5059 49.3074 65.9809 61.1672 63.5373 64.3297H63.5372Z" fill="white"/>
<path d="M40.3222 35.2903C40.5379 35.7934 41.041 36.1528 41.616 36.1528H50.3129C50.8879 36.1528 51.3911 35.7934 51.6067 35.2903L56.7817 23.7183C57.0692 22.9996 56.7817 22.1371 56.0629 21.8496C55.2723 21.4902 54.6254 21.9933 53.9785 22.3527C53.7629 22.4246 49.3785 24.7965 47.2222 20.9871C46.8629 20.2683 45.9285 20.0527 45.2817 20.484C45.0661 20.6277 44.8504 20.7715 44.7786 20.9871C42.6941 24.6526 38.5255 22.6401 38.0223 22.3527C37.3754 21.9933 36.7286 21.4902 35.9379 21.8496C35.2191 22.1371 34.8597 22.9996 35.2191 23.7183L40.3222 35.2903ZM41.1847 26.0183C42.9817 26.0902 44.7785 25.3715 46.0003 24.0778C47.294 25.3715 49.019 26.0903 50.8158 26.0183C51.4627 26.0183 52.0377 25.9465 52.6846 25.8027L49.3783 33.2058H42.5503L39.244 25.8027C39.8909 25.9465 40.5378 26.0183 41.1846 26.0183H41.1847Z" fill="white"/>
<path d="M43.2704 51.03C43.2704 50.0237 44.0611 49.0175 46.1454 49.0175C47.4392 49.0175 48.661 49.4487 49.6674 50.3112C49.9549 50.5987 50.3143 50.8144 50.7455 50.8862C51.4643 50.8862 52.1111 50.3112 52.1111 49.5925C52.1111 49.305 52.0393 49.0175 51.8955 48.8019C51.033 47.58 49.38 46.7894 47.3675 46.5738V45.1363C47.3675 44.4895 46.8643 43.9863 46.2175 43.9863C45.5706 43.9863 45.0675 44.4895 45.0675 45.1363V46.5738C41.833 46.9332 40.4675 48.8738 40.4675 51.1019C40.4675 57.1394 49.5955 55.4863 49.5955 59.0799C49.5955 60.6612 48.5174 61.3799 46.2175 61.3799C44.6362 61.308 43.1269 60.6612 42.1205 59.5112C41.833 59.1518 41.4736 59.008 41.0424 58.9362C40.3236 58.9362 39.6768 59.583 39.7486 60.3018C39.7486 60.5174 39.8205 60.8049 39.9643 61.0205C41.1861 62.7455 43.0548 63.8236 45.1393 63.9675V65.405C45.1393 66.0519 45.6424 66.555 46.2893 66.555C46.9361 66.555 47.4393 66.0519 47.4393 65.405V63.9675C50.8173 63.6081 52.5423 61.8112 52.5423 59.08C52.3986 52.827 43.2703 54.3362 43.2703 51.03H43.2704Z" fill="white"/>
</svg>
