<svg width="70" height="70" viewBox="0 0 70 70" fill="none" xmlns="http://www.w3.org/2000/svg">
<g opacity="0.5">
<circle cx="35" cy="35" r="35" fill="#EB266F"/>
<path d="M39.8362 17H29.1638C27.7944 17.001 26.4818 17.5358 25.5135 18.487C24.5454 19.4381 24.0011 20.7279 24 22.0733V46.9267C24.001 48.272 24.5454 49.5619 25.5135 50.513C26.4818 51.4641 27.7944 51.9989 29.1638 52H39.8362C41.2056 51.999 42.5182 51.4642 43.4865 50.513C44.4546 49.5619 44.9989 48.2721 45 46.9267V22.0733C44.999 20.728 44.4546 19.4381 43.4865 18.487C42.5182 17.5359 41.2056 17.0011 39.8362 17ZM43.125 46.9271C43.1229 47.7834 42.7758 48.6042 42.1595 49.2097C41.5433 49.8151 40.7078 50.1562 39.8362 50.1582H29.1638C28.2922 50.1562 27.4567 49.8151 26.8405 49.2097C26.2242 48.6042 25.8771 47.7833 25.875 46.9271V22.0737C25.8771 21.2174 26.2242 20.3966 26.8405 19.7911C27.4567 19.1857 28.2922 18.8446 29.1638 18.8426H29.4337C29.1682 19.3542 29.1933 19.9646 29.4996 20.4536C29.8059 20.9427 30.3492 21.2395 30.9335 21.2372H38.0584C38.6427 21.2395 39.1863 20.9427 39.4926 20.4536C39.7989 19.9646 39.8237 19.3542 39.5582 18.8426H39.8282C40.7013 18.8426 41.5383 19.1828 42.1565 19.7886C42.7743 20.3943 43.1225 21.2161 43.1245 22.0737L43.125 46.9271Z" fill="white"/>
</g>
</svg>
