<svg width="50" height="50" viewBox="0 0 50 50" fill="none" xmlns="http://www.w3.org/2000/svg">
<circle cx="25" cy="25" r="25" fill="#EB266F"/>
<path fill-rule="evenodd" clip-rule="evenodd" d="M25.3783 11C28.6247 11 31.2396 13.5063 31.2396 16.617C31.2396 19.8145 28.6243 22.3205 25.3783 22.3205C22.0418 22.3205 19.4268 19.8143 19.4268 16.617C19.4268 13.5059 22.042 11 25.3783 11Z" fill="white"/>
<path fill-rule="evenodd" clip-rule="evenodd" d="M20.5991 23.0117H30.0677C32.5927 23.0117 34.6667 24.9994 34.6667 27.4191V34.5921C34.6667 37.0119 32.5926 38.9996 30.0677 38.9996H20.5991C18.0741 38.9996 16 37.0119 16 34.5921V27.4191C16 24.9994 18.0741 23.0117 20.5991 23.0117Z" fill="white"/>
</svg>
