<svg width="44" height="43" viewBox="0 0 44 43" fill="none" xmlns="http://www.w3.org/2000/svg">
<path d="M36.0802 2.10754V6.47887H38.1877V0H32.3105V2.10754H36.0802Z" fill="#171C2C"/>
<path d="M7.91817 2.10754H11.6877V0H5.81055V6.47887H7.91809L7.91817 2.10754Z" fill="#171C2C"/>
<path d="M7.91809 28.9491V24.8203H5.81055V31.0593H11.6877V28.9491H7.91809Z" fill="#171C2C"/>
<path d="M36.0801 28.9491H32.3105V31.0593H38.1877V24.8203H36.0802L36.0801 28.9491Z" fill="#171C2C"/>
<path d="M38.1701 35.7457C31.8667 34.2914 25.9973 33.0175 28.8389 27.6504C37.49 11.341 31.1325 2.62012 21.9982 2.62012C12.6829 2.62012 6.48171 11.6757 15.1549 27.6504C18.0828 33.0474 11.9924 34.313 5.82365 35.7457C-0.477093 37.2 0.00866943 36.38 0.00866943 42.4083H43.9931C43.988 36.38 44.4738 37.2003 38.1701 35.7457H38.1701Z" fill="#171C2C"/>
</svg>
