<svg width="14" height="15" viewBox="0 0 14 15" fill="none" xmlns="http://www.w3.org/2000/svg">
<path fill-rule="evenodd" clip-rule="evenodd" d="M3.48114 1.60716H0.538462C0.241225 1.60716 0 1.84715 0 2.14287V3.75003C0 4.04575 0.241225 4.28575 0.538462 4.28575H1.12812L2.0596 13.5531C2.14193 14.3742 2.83714 15 3.66692 15H10.3331C11.1629 15 11.8581 14.3743 11.9404 13.5531L12.8719 4.28575H13.4615C13.7588 4.28575 14 4.04575 14 3.75003V2.14287C14 1.84715 13.7588 1.60716 13.4615 1.60716H10.5189L9.92163 0.71569C9.62175 0.268349 9.11778 0 8.57763 0H5.42225C4.88209 0 4.37812 0.268337 4.07825 0.71569L3.48114 1.60716ZM11.7898 4.28575H2.21037L3.13117 13.4465C3.15869 13.7203 3.39018 13.9287 3.66698 13.9287H10.3331C10.6099 13.9287 10.8414 13.7203 10.869 13.446L11.7898 4.28575ZM8.6156 6.42862V11.7858C8.6156 12.0815 8.85683 12.3215 9.15406 12.3215C9.4513 12.3215 9.69252 12.0815 9.69252 11.7858V6.42862C9.69252 6.1329 9.4513 5.89291 9.15406 5.89291C8.85683 5.89291 8.6156 6.1329 8.6156 6.42862ZM4.30791 6.42862V11.7858C4.30791 12.0815 4.54913 12.3215 4.84637 12.3215C5.14361 12.3215 5.38483 12.0815 5.38483 11.7858V6.42862C5.38483 6.1329 5.14361 5.89291 4.84637 5.89291C4.54913 5.89291 4.30791 6.1329 4.30791 6.42862ZM6.46175 6.42862V11.7858C6.46175 12.0815 6.70298 12.3215 7.00022 12.3215C7.29745 12.3215 7.53868 12.0815 7.53868 11.7858V6.42862C7.53868 6.1329 7.29745 5.89291 7.00022 5.89291C6.70298 5.89291 6.46175 6.1329 6.46175 6.42862ZM1.07714 3.21431H12.9233V2.67859H1.07714V3.21431ZM9.22452 1.60716L9.02585 1.30988C8.92561 1.16088 8.7577 1.07144 8.57779 1.07144H5.4224C5.24247 1.07144 5.07455 1.16088 4.97434 1.30988L4.77566 1.60716H9.22452Z" fill="white"/>
</svg>
