<svg width="28" height="28" viewBox="0 0 28 28" fill="none" xmlns="http://www.w3.org/2000/svg">
<path d="M15.2835 11.6664L14.0002 9.56641L12.7169 11.6664C12.6002 11.8997 12.3669 12.0164 12.1335 12.0164L9.68359 12.4831L11.4335 14.3497C11.5502 14.6997 11.6669 14.9331 11.6669 15.1664L11.4335 17.6164L13.7669 16.5664C13.8835 16.5664 14.0002 16.4497 14.1169 16.4497C14.2336 16.4497 14.3502 16.4497 14.4669 16.5664L16.8002 17.6164L16.3335 15.1664C16.3335 14.9331 16.3335 14.6997 16.5669 14.4664L18.3169 12.5997L15.8669 12.1331C15.5169 12.0164 15.4002 11.8997 15.2835 11.6664Z" fill="white"/>
<path d="M13.9995 5.13281C9.09948 5.13281 5.13281 9.09948 5.13281 13.9995C5.13281 18.8995 9.09948 22.8661 13.9995 22.8661C18.8995 22.8661 22.8661 18.8995 22.8661 13.9995C22.8661 9.09948 18.8995 5.13281 13.9995 5.13281ZM17.9661 15.2828L18.3161 18.8995C18.3161 19.2495 18.1995 19.4828 17.9661 19.5995C17.6161 19.9495 17.1495 19.7161 17.1495 19.7161L13.9995 18.1995L10.7328 19.7161C10.4995 19.8328 10.1495 19.8328 9.91614 19.5995C9.68281 19.4828 9.56614 19.1328 9.56614 18.8995L10.0328 15.2828L7.58281 12.5995C7.34948 12.3661 7.34948 12.0161 7.34948 11.7828C7.34948 11.5495 7.69948 11.3161 7.93281 11.1995L11.4328 10.4995L13.1828 7.34948C13.4161 7.23281 13.6495 6.99948 13.9995 6.99948C14.3495 6.99948 14.5828 7.11615 14.6995 7.46615L16.4495 10.6161L19.9495 11.3161C20.1828 11.4328 20.5328 11.5495 20.5328 11.8995C20.6495 12.1328 20.5328 12.4828 20.2995 12.7161L17.9661 15.2828Z" fill="white"/>
<path d="M14 0C6.3 0 0 6.3 0 14C0 21.7 6.3 28 14 28C21.7 28 28 21.7 28 14C28 6.3 21.7 0 14 0ZM14 24.5C8.16667 24.5 3.5 19.8333 3.5 14C3.5 8.16667 8.16667 3.5 14 3.5C19.8333 3.5 24.5 8.16667 24.5 14C24.5 19.8333 19.8333 24.5 14 24.5Z" fill="white"/>
</svg>
