<svg width="28" height="28" viewBox="0 0 28 28" fill="none" xmlns="http://www.w3.org/2000/svg">
<path d="M3.03378 21.5805L5.83378 2.9138C5.83378 2.5638 5.95045 2.2138 6.06711 1.98047L3.38378 2.09714C1.40045 2.2138 -0.116222 3.84714 0.000444796 5.7138L0.933778 24.6138C1.05045 26.4805 2.56711 27.9971 4.43378 27.9971C4.55045 27.9971 4.66711 27.9971 4.66711 27.9971L11.9004 27.6471L7.00045 26.9471C4.43378 26.4805 2.68378 24.1471 3.03378 21.5805Z" fill="white"/>
<path d="M27.3007 3.4981C26.7174 2.7981 25.9007 2.21477 24.9674 2.0981L10.9674 -0.00190145C8.98401 -0.235235 7.23402 1.16477 7.00069 3.03143L4.31735 21.6981C4.08402 23.6814 5.36735 25.4314 7.35069 25.6648L21.3507 27.7648C23.334 27.9981 25.084 26.7148 25.3174 24.7314L28.0007 6.06476C28.1174 5.2481 27.884 4.1981 27.3007 3.4981ZM20.7674 15.7481C19.134 17.0314 16.8007 18.0814 15.8674 18.4314C15.634 18.5481 15.4007 18.4314 15.284 18.3148C14.584 17.7314 12.6007 15.9814 11.434 14.3481C8.40069 10.3814 13.7674 6.2981 16.8007 10.3814C20.7674 7.46476 24.734 12.8314 20.7674 15.7481Z" fill="white"/>
</svg>
