<svg width="28" height="28" viewBox="0 0 28 28" fill="none" xmlns="http://www.w3.org/2000/svg">
<path d="M14 0C6.3 0 0 6.3 0 14C0 21.7 6.3 28 14 28C21.7 28 28 21.7 28 14C28 6.3 21.7 0 14 0ZM7 16.5667C5.6 16.5667 4.43333 15.4 4.43333 14C4.43333 12.6 5.6 11.4333 7 11.4333C8.4 11.4333 9.56667 12.6 9.56667 14C9.56667 15.4 8.4 16.5667 7 16.5667ZM14 16.5667C12.6 16.5667 11.4333 15.4 11.4333 14C11.4333 12.6 12.6 11.4333 14 11.4333C15.4 11.4333 16.5667 12.6 16.5667 14C16.5667 15.4 15.4 16.5667 14 16.5667ZM21 16.5667C19.6 16.5667 18.4333 15.4 18.4333 14C18.4333 12.6 19.6 11.4333 21 11.4333C22.4 11.4333 23.5667 12.6 23.5667 14C23.5667 15.4 22.4 16.5667 21 16.5667Z" fill="#171C2C"/>
</svg>
