<svg width="28" height="28" viewBox="0 0 28 28" fill="none" xmlns="http://www.w3.org/2000/svg">
<path d="M11.985 0.563C9.512 0.908 7.119 1.881 5.086 3.505L9.456 7.738C11.025 5.78 11.9 3.298 11.985 0.563ZM14 12.141L22.914 3.505C20.52 1.591 17.63 0.58 14.7 0.438C14.632 3.932 13.486 7.126 11.386 9.608L14 12.142V12.141ZM3.167 5.365C1.54686 7.26307 0.49431 9.57923 0.13 12.048C2.952 11.966 5.521 11.118 7.536 9.598L3.166 5.365H3.167ZM18.533 16.532C21.09 14.503 24.387 13.393 28 13.322C27.8523 10.3926 26.7387 7.59467 24.833 5.365L15.92 14L18.534 16.532H18.533ZM14 15.859L5.086 24.494C7.48 26.404 10.37 27.42 13.3 27.563C13.373 24.063 14.52 20.869 16.614 18.391L14 15.86V15.859ZM24.833 22.635C26.4531 20.7369 27.5057 18.4208 27.87 15.952C25.042 16.04 22.479 16.887 20.464 18.402L24.834 22.635H24.833ZM9.467 11.468C6.904 13.502 3.607 14.618 0 14.678C0.147784 17.6073 1.26141 20.4053 3.167 22.635L12.08 14L9.466 11.468H9.467ZM16.015 27.437C18.488 27.092 20.881 26.119 22.914 24.494L18.544 20.262C16.981 22.214 16.106 24.702 16.015 27.437Z" fill="#EB266F"/>
</svg>
