<svg width="28" height="28" viewBox="0 0 28 28" fill="none" xmlns="http://www.w3.org/2000/svg">
<path d="M14.583 16.1014C14.233 15.7489 13.65 15.7489 13.417 16.1014L8.75001 21.3897C8.51701 21.7422 8.51701 22.2126 8.75001 22.4473L13.417 27.7356C13.767 28.0881 14.35 28.0881 14.583 27.7356L19.483 22.4473C19.717 22.0948 19.717 21.6244 19.483 21.3897L14.583 16.1014ZM11.55 0C9.68301 0 8.28301 1.6449 8.28301 3.5255C8.28301 5.99334 10.5 7.5214 13.533 10.1061C13.883 10.3418 14.35 10.3418 14.583 10.1061C17.5 7.5214 19.717 5.99334 19.717 3.5255C19.717 1.52805 18.317 0 16.45 0C15.517 0 14.583 0.470402 14 1.29235C13.3 0.470402 12.483 0 11.55 0ZM8.16701 16.8045C8.59617 16.8052 9.02125 16.7205 9.41786 16.5554C9.81447 16.3902 10.1748 16.1478 10.4782 15.8421C10.7817 15.5364 11.0222 15.1733 11.186 14.7738C11.3499 14.3742 11.4338 13.946 11.433 13.5137C11.433 11.9857 10.383 10.6933 8.98301 10.3408C9.10001 8.46018 7.58301 6.93314 5.71701 6.93314C3.85001 6.93314 2.33301 8.46018 2.45001 10.3408C1.05001 10.5765 5.53584e-06 11.8688 5.53584e-06 13.3969C-0.000785402 13.8292 0.0831855 14.2574 0.2471 14.657C0.411014 15.0566 0.651645 15.4196 0.955185 15.7253C1.25872 16.0309 1.6192 16.2732 2.01592 16.4382C2.41264 16.6032 2.8378 16.6876 3.26701 16.6867C3.85001 16.6867 4.43301 16.5698 4.90001 16.2173V18.3326H4.08301C3.97514 18.33 3.86786 18.3494 3.76768 18.3898C3.6675 18.4302 3.57651 18.4906 3.50021 18.5675C3.42391 18.6443 3.3639 18.736 3.32381 18.8369C3.28373 18.9378 3.2644 19.0459 3.26701 19.1545C3.26701 19.6249 3.61701 19.9775 4.08301 19.9775H7.35001C7.81701 19.9775 8.16701 19.6249 8.16701 19.1545C8.16961 19.0458 8.15026 18.9376 8.11011 18.8367C8.06996 18.7357 8.00986 18.644 7.93346 18.5671C7.85705 18.4902 7.76594 18.4298 7.66564 18.3895C7.56534 18.3492 7.45796 18.3298 7.35001 18.3326H6.53301V16.2173C7.00001 16.5698 7.58301 16.8045 8.16701 16.8045ZM22.75 6.81428C22.4 6.57958 21.933 6.57958 21.7 6.81428C18.783 9.39998 16.45 10.927 16.45 13.3949C16.45 15.3923 17.85 16.9204 19.717 16.9204C20.3 16.9204 20.883 16.8035 21.35 16.451V18.3306H20.533C20.4251 18.3279 20.3177 18.3474 20.2174 18.3879C20.1172 18.4283 20.0262 18.4889 19.9498 18.5658C19.8735 18.6428 19.8135 18.7346 19.7735 18.8356C19.7335 18.9366 19.7143 19.0448 19.717 19.1535C19.717 19.6229 20.067 19.9755 20.533 19.9755H23.8C24.267 19.9755 24.617 19.6229 24.617 19.1535C24.6198 19.0447 24.6005 18.9364 24.5604 18.8353C24.5203 18.7342 24.4602 18.6424 24.3838 18.5654C24.3074 18.4885 24.2162 18.428 24.1159 18.3876C24.0155 18.3472 23.908 18.3278 23.8 18.3306H22.983V16.45C23.45 16.8025 24.033 16.9204 24.617 16.9204C26.483 16.9204 27.883 15.2755 27.883 13.3949C28 10.927 25.783 9.39998 22.75 6.81428Z" fill="#EB266F"/>
</svg>
