<svg width="27" height="26" viewBox="0 0 27 26" fill="none" xmlns="http://www.w3.org/2000/svg">
<path d="M25.963 13C25.963 19.5934 20.4094 25 13.4815 25C6.55356 25 1 19.5934 1 13C1 6.40655 6.55356 1 13.4815 1C20.4094 1 25.963 6.40655 25.963 13Z" stroke="url(#paint0_linear_355_26631)" stroke-width="2"/>
<path d="M15.7403 16.9168C15.7403 17.1769 15.6379 17.3491 15.4042 17.4775L11.8626 19.4534C11.7457 19.5185 11.6358 19.5511 11.5259 19.5511C11.4159 19.5511 11.306 19.5185 11.1892 19.4534L9.51013 18.5175C9.27666 18.3873 9.17383 18.2155 9.17383 17.9554V7.77752C9.17383 7.51742 9.27667 7.34556 9.51013 7.21533L11.2738 6.23228C11.3474 6.18955 11.4336 6.16495 11.5256 6.16495C11.7958 6.16495 12.0148 6.37621 12.0148 6.63668C12.0148 6.81426 11.913 6.96892 11.7626 7.0494L10.1521 7.94698V17.7854L11.5257 18.551L14.7619 16.7472V15.2151L13.8775 14.7221V15.9811C13.8775 16.2416 13.6584 16.4529 13.3883 16.4529C13.1182 16.4529 12.8995 16.2416 12.8995 15.9811L12.897 13.9049C12.897 13.7427 12.9839 13.5849 13.1393 13.4972C13.2189 13.4528 13.3037 13.4327 13.386 13.4327C13.4735 13.4327 13.5581 13.4554 13.6308 13.4959L15.404 14.4831C15.6375 14.6133 15.7403 14.7852 15.7403 15.0453L15.7403 16.9168ZM11.0367 8.81579C11.0367 8.55569 11.1393 8.38348 11.3727 8.25323L14.9144 6.27917C15.0312 6.21407 15.1411 6.18151 15.2511 6.18151C15.361 6.18151 15.471 6.21407 15.5878 6.27917L17.2668 7.21505C17.5005 7.34529 17.6033 7.51715 17.6033 7.77725V11.7254C17.6033 11.9855 17.5005 12.1573 17.267 12.2876L15.5034 13.2706C15.4297 13.3133 15.3436 13.3379 15.2515 13.3379C14.9814 13.3379 14.7623 13.1267 14.7623 12.8662C14.7623 12.6886 14.8641 12.534 15.0145 12.4535L16.6251 11.5559V7.94725L15.2515 7.18156L12.0151 8.98543V17.0197C12.0151 17.2801 11.796 17.4914 11.5259 17.4914C11.2557 17.4914 11.0367 17.2801 11.0367 17.0197V8.81616V8.81579ZM13.1515 11.4149L14.7619 10.517V9.53024L13.6402 10.1555C13.5667 10.1982 13.4806 10.2228 13.3885 10.2228C13.1184 10.2228 12.8993 10.0116 12.8993 9.75111C12.8993 9.57353 13.0027 9.42147 13.1515 9.33823L15.0044 8.30412C15.0815 8.26119 15.1655 8.24085 15.2486 8.24085C15.4176 8.24085 15.582 8.3254 15.6725 8.47672C15.717 8.55107 15.7381 8.6321 15.7381 8.71219L15.7404 10.6868C15.7406 10.9469 15.6374 11.1188 15.4038 11.249L13.6401 12.232C13.5667 12.2748 13.4805 12.2994 13.3884 12.2994C13.1183 12.2994 12.8992 12.0881 12.8992 11.8277C12.8992 11.6501 13.0011 11.4954 13.1515 11.4149ZM17.1139 13.4323C17.384 13.4323 17.6031 13.6434 17.6031 13.9038V17.9544C17.6031 18.2145 17.5003 18.3864 17.2666 18.5166L15.503 19.4997C15.4293 19.5424 15.3432 19.567 15.2511 19.567C14.981 19.567 14.7619 19.3557 14.7619 19.0953C14.7619 18.9177 14.8637 18.763 15.0141 18.6826L16.6247 17.785V13.904C16.6247 13.6435 16.8438 13.4323 17.1139 13.4323Z" fill="url(#paint1_linear_355_26631)"/>
<defs>
<linearGradient id="paint0_linear_355_26631" x1="22.5155" y1="22.1134" x2="9.26128" y2="-4.01586" gradientUnits="userSpaceOnUse">
<stop stop-color="#EC2770"/>
<stop offset="1" stop-color="#641A35"/>
</linearGradient>
<linearGradient id="paint1_linear_355_26631" x1="8.47891" y1="8.4433" x2="23.9076" y2="14.3005" gradientUnits="userSpaceOnUse">
<stop stop-color="#EB266F"/>
<stop offset="0.3125" stop-color="#EB266F"/>
<stop offset="0.354167" stop-color="#94204B"/>
<stop offset="0.808444" stop-color="#523E45" stop-opacity="0.94"/>
</linearGradient>
</defs>
</svg>
