<svg width="22" height="24" viewBox="0 0 22 24" fill="none" xmlns="http://www.w3.org/2000/svg">
<path d="M21.1655 5.87734H16.1838C16.3184 5.76852 16.4531 5.6597 16.5608 5.55089C17.9071 4.19043 17.988 2.09506 16.7493 0.870702C16.1838 0.299301 15.4299 0 14.622 0C13.7064 0 12.7908 0.380944 12.1176 1.0612C11.7675 1.41498 11.3637 2.01355 10.9867 2.6938C10.6366 1.98621 10.2058 1.38766 9.85572 1.0612C9.18254 0.380948 8.26697 0 7.35139 0C6.5435 0 5.76265 0.299292 5.22406 0.870702C4.0123 2.09519 4.0931 4.21772 5.41255 5.55089C5.52024 5.65971 5.65498 5.76852 5.78954 5.87734H0.807899C0.376988 5.87734 0 6.23112 0 6.69372V12.5984C0 13.0338 0.350104 13.4148 0.807899 13.4148H0.942465V23.1836C0.942465 23.6191 1.29257 24 1.75036 24H20.2496C20.6805 24 21.0575 23.6462 21.0575 23.1836V13.3877H21.1921C21.623 13.3877 22 13.0339 22 12.5713V6.69372C21.9731 6.25829 21.5964 5.87734 21.1655 5.87734ZM10.1787 22.3402H2.53116V13.3878H10.1787V22.3402ZM10.1787 11.7825H1.58859V7.51037H9.7208H9.74768H10.1786L10.1787 11.7825ZM10.1787 5.57821C10.1787 5.68703 10.1247 5.74152 10.0979 5.79585C10.071 5.82301 9.93626 5.8775 9.72089 5.8775C8.75156 5.8775 7.18969 5.06112 6.51651 4.40802C5.81629 3.70044 5.70861 2.61213 6.32802 2.01353C6.57044 1.76856 6.9474 1.60542 7.32439 1.60542C7.80905 1.60542 8.32076 1.82306 8.69775 2.20403C9.4786 2.99308 10.098 4.48972 10.1788 5.3061C10.1787 5.38776 10.1787 5.49655 10.1787 5.57821ZM11.7674 5.30608C11.8482 4.48969 12.4677 2.99306 13.2485 2.204C13.6255 1.82306 14.1372 1.6054 14.6219 1.6054C15.0257 1.6054 15.3758 1.74138 15.6182 2.01351C16.2106 2.61211 16.1298 3.7006 15.4297 4.408C14.7566 5.08825 13.1947 5.87748 12.2254 5.87748C12.01 5.87748 11.9023 5.82299 11.8484 5.79583C11.7945 5.74133 11.7676 5.65984 11.7676 5.57819C11.7674 5.49653 11.7674 5.38774 11.7674 5.30608ZM19.4422 22.3401H11.7947V13.3877H19.4422V22.3401ZM20.3576 11.7823H11.7948V7.51025H12.2257H12.2526H20.3848V11.7823H20.3576Z" fill="#EB266F"/>
</svg>
