<svg width="28" height="22" viewBox="0 0 28 22" fill="none" xmlns="http://www.w3.org/2000/svg">
<path d="M23.8783 1.11064C23.4368 0.669075 22.7007 0.669075 22.2589 1.11064C21.8173 1.55221 21.8173 2.28827 22.2589 2.73008C24.4672 4.93832 25.6744 7.85326 25.6744 11.0036C25.6744 14.1246 24.4672 17.069 22.2589 19.2772C21.8173 19.7188 21.8173 20.4548 22.2589 20.8966C22.4945 21.1322 22.7888 21.2205 23.0833 21.2205C23.3778 21.2205 23.6721 21.1028 23.9077 20.8966C26.5575 18.2469 28.0004 14.743 28.0004 11.0037C27.971 7.26434 26.5282 3.7312 23.8784 1.11075L23.8783 1.11064Z" fill="#EB266F"/>
<path d="M2.29658 11.0036C2.29658 7.88271 3.50381 4.93832 5.71205 2.73008C6.15362 2.28851 6.15362 1.55245 5.71205 1.11064C5.27049 0.669075 4.53443 0.669075 4.09262 1.11064C1.44283 3.73109 0 7.26429 0 11.0036C0 14.7429 1.44277 18.2466 4.09262 20.8965C4.32819 21.1321 4.62249 21.2204 4.91703 21.2204C5.21155 21.2204 5.50585 21.1027 5.74144 20.8965C6.18301 20.455 6.18301 19.7189 5.74144 19.2771C3.50381 17.0689 2.29658 14.1245 2.29658 11.0035V11.0036Z" fill="#EB266F"/>
<path d="M20.9936 3.99619C20.552 3.55463 19.816 3.55463 19.3741 3.99619C18.9326 4.43776 18.9326 5.17382 19.3741 5.61563C20.8169 7.0584 21.6118 8.97216 21.6118 11.0038C21.6118 13.0353 20.8168 14.9491 19.3741 16.3624C18.9326 16.804 18.9326 17.5401 19.3741 17.9819C19.6097 18.2174 19.904 18.3058 20.1986 18.3058C20.4931 18.3058 20.7874 18.1881 21.023 17.9819C22.8779 16.1269 23.9084 13.6243 23.9084 10.9744C23.879 8.35391 22.8484 5.85117 20.9936 3.9963V3.99619Z" fill="#EB266F"/>
<path d="M6.35996 11.0038C6.35996 8.97211 7.15498 7.0584 8.5976 5.61563C9.03916 5.17406 9.03916 4.438 8.5976 3.99619C8.15603 3.55463 7.41997 3.55463 6.97816 3.99619C5.12339 5.85117 4.09277 8.35396 4.09277 11.0037C4.09277 13.6242 5.15273 16.1857 7.00771 18.0112C7.24329 18.2174 7.50822 18.3351 7.80273 18.3351C8.09725 18.3351 8.39155 18.2174 8.62715 17.9818C9.06871 17.5403 9.06871 16.8042 8.62715 16.3624C7.18437 14.9786 6.35996 13.0057 6.35996 11.0037V11.0038Z" fill="#EB266F"/>
<path d="M18.1366 6.88175C17.695 6.44018 16.959 6.41061 16.5172 6.88175C16.0756 7.32331 16.046 8.05938 16.5172 8.50118C17.1943 9.17833 17.5478 10.0617 17.5478 11.004C17.5478 11.9463 17.1945 12.8294 16.5172 13.5068C16.0756 13.9483 16.0756 14.6844 16.5172 15.1262C16.7527 15.3324 17.0177 15.4501 17.3122 15.4501C17.6067 15.4501 17.901 15.3324 18.1366 15.0968C19.2259 13.9779 19.8443 12.5353 19.8443 10.9749C19.8147 9.44334 19.2259 8.00056 18.1366 6.88182V6.88175Z" fill="#EB266F"/>
<path d="M11.4834 6.88165C11.0418 6.44009 10.3058 6.44009 9.86396 6.88165C8.74506 8.00055 8.15625 9.44317 8.15625 11.0036C8.15625 12.5641 8.77466 14.0363 9.86396 15.1256C10.0995 15.3611 10.3938 15.4495 10.6884 15.4495C10.9829 15.4495 11.2772 15.3318 11.5128 15.1256C11.9544 14.684 11.9544 13.9479 11.5128 13.5061C10.8063 12.829 10.453 11.9458 10.453 11.0036C10.453 10.0613 10.8359 9.17812 11.4837 8.50077C11.9252 8.05921 11.9252 7.32314 11.4835 6.88155L11.4834 6.88165Z" fill="#EB266F"/>
<path d="M15.7223 11.0035C15.7223 11.9628 14.9445 12.7406 13.9851 12.7406C13.0258 12.7406 12.248 11.9628 12.248 11.0035C12.248 10.0442 13.0258 9.26639 13.9851 9.26639C14.9445 9.26639 15.7223 10.0442 15.7223 11.0035Z" fill="#EB266F"/>
</svg>
