<svg width="28" height="28" viewBox="0 0 28 28" fill="none" xmlns="http://www.w3.org/2000/svg">
<path d="M27.7667 3.5L27.0667 2.8V1.75C27.0667 1.28333 26.7167 0.933334 26.25 0.933334H25.2L24.5 0.233333C24.3834 0.116667 24.15 0 24.0334 0C23.9167 0 23.6834 0.116667 23.45 0.233333L22.75 0.933334H21.7C21.2334 0.933334 20.8834 1.28333 20.8834 1.75V2.8L20.1834 3.5C19.8334 3.85 19.8334 4.31667 20.1834 4.55L20.8834 5.25V6.3C20.8834 6.76667 21.2334 7.11667 21.7 7.11667H22.75L23.45 7.81667C23.5667 7.93333 23.8 8.05 24.0334 8.05C24.2667 8.05 24.3834 7.93333 24.6167 7.81667L25.3167 7.11667H26.3667C26.8334 7.11667 27.1834 6.76667 27.1834 6.3V5.25L27.8834 4.55C28.1167 4.2 28.1167 3.73333 27.7667 3.5Z" fill="white"/>
<path d="M14.8169 8.40026V7.00026C14.8169 6.53359 14.4669 6.18359 14.0002 6.18359H5.25026C4.78359 6.18359 4.43359 6.53359 4.43359 7.00026V8.51693C5.95026 7.70026 7.81692 7.23359 9.68359 7.23359C11.4336 7.11693 13.3002 7.58359 14.8169 8.40026Z" fill="white"/>
<path d="M6.06712 14.8164C5.60046 14.8164 5.13379 15.2831 5.13379 15.7497C5.13379 16.2164 5.60046 16.6831 6.06712 16.6831C6.53379 16.6831 7.00046 16.2164 7.00046 15.7497C7.00046 15.2831 6.65046 14.8164 6.06712 14.8164Z" fill="white"/>
<path d="M9.56667 8.75C4.31667 8.75 0 13.0667 0 18.4333C0 23.6833 4.31667 28 9.56667 28C14.8167 28 19.1333 23.6833 19.1333 18.4333C19.25 13.0667 14.9333 8.75 9.56667 8.75ZM6.06667 18.3167C4.66667 18.3167 3.5 17.15 3.5 15.75C3.5 14.35 4.66667 13.1833 6.06667 13.1833C7.46667 13.1833 8.63333 14.35 8.63333 15.75C8.63333 17.15 7.46667 18.3167 6.06667 18.3167Z" fill="white"/>
<path d="M22.75 9.33333C22.2833 9.91667 21.5833 10.3833 20.7667 10.3833C19.4833 10.3833 18.3167 9.33333 18.3167 7.93333V4.78333C18.3167 2.1 16.2167 0 13.5333 0C10.9667 0 8.86667 1.98333 8.75 4.55H10.3833C10.5 2.91667 11.9 1.63333 13.5333 1.63333C15.2833 1.63333 16.6833 3.03333 16.6833 4.78333V7.93333C16.6833 10.15 18.55 12.0167 20.7667 12.0167C22.4 12.0167 23.8 11.0833 24.5 9.68333C24.3833 9.68333 24.15 9.68333 24.0333 9.68333C23.5667 9.68333 23.1 9.56667 22.75 9.33333Z" fill="white"/>
</svg>
