<svg width="28" height="28" viewBox="0 0 28 28" fill="none" xmlns="http://www.w3.org/2000/svg">
<path d="M25 23L24.3694 20H3.63059L3 23H25Z" stroke="white" stroke-linecap="round" stroke-linejoin="round"/>
<path fill-rule="evenodd" clip-rule="evenodd" d="M7.39686 13.0325C7.61682 13.2263 7.95558 13.1902 8.12968 12.9543L13.5973 5.54682C13.7972 5.27606 14.202 5.27606 14.4019 5.54682L19.8695 12.9543C20.0436 13.1902 20.3824 13.2263 20.6024 13.0325L24.9396 9.21108C25.2931 8.89954 25.842 9.20535 25.7631 9.66995L24.0791 19.5855C24.0383 19.8259 23.83 20.0018 23.5862 20.0018H4.41304C4.1692 20.0018 3.96092 19.8259 3.92009 19.5855L2.23617 9.66995C2.15727 9.20535 2.70607 8.89954 3.05965 9.21108L7.39686 13.0325ZM11.2526 13.9293C11.108 14.1359 11.14 14.4178 11.3271 14.5868L13.6644 16.6989C13.8547 16.8709 14.1444 16.8709 14.3348 16.6989L16.6721 14.5868C16.8592 14.4178 16.8912 14.1359 16.7466 13.9293L14.4093 10.5876C14.2103 10.303 13.7889 10.303 13.5899 10.5876L11.2526 13.9293Z" fill="white"/>
</svg>
