<svg width="28" height="28" viewBox="0 0 28 28" fill="none" xmlns="http://www.w3.org/2000/svg">
<path d="M14 0C6.27908 0 1.27273e-05 6.27905 0 14C-1.27273e-05 21.721 6.27906 28 14 28C21.721 28 28 21.721 28 14C28 6.27905 21.7209 0 14 0ZM13.9873 3.71328C14.1128 3.71107 14.2374 3.73418 14.3537 3.78123C14.47 3.82829 14.5758 3.89833 14.6644 3.98716C14.7531 4.076 14.8229 4.18179 14.8698 4.29823C14.9166 4.41467 14.9394 4.53936 14.937 4.66484V13.063H21.4685C21.5928 13.0602 21.7164 13.0824 21.8321 13.1279C21.9478 13.1736 22.0532 13.242 22.1421 13.3289C22.2311 13.4158 22.3017 13.5197 22.35 13.6342C22.3982 13.7489 22.423 13.872 22.423 13.9963C22.423 14.1207 22.3982 14.2439 22.35 14.3584C22.3017 14.4731 22.2311 14.5769 22.1421 14.6639C22.0532 14.7508 21.9478 14.8191 21.8321 14.8647C21.7164 14.9104 21.5928 14.9325 21.4685 14.9297H14C13.7537 14.9287 13.5179 14.8305 13.3437 14.6563C13.1695 14.4821 13.0713 14.2463 13.0703 14V4.66484C13.0679 4.54212 13.0897 4.42013 13.1345 4.30585C13.1793 4.19159 13.2463 4.08726 13.3314 3.99888C13.4166 3.91049 13.5184 3.83977 13.6309 3.79077C13.7434 3.74175 13.8645 3.71542 13.9873 3.71328Z" fill="white"/>
</svg>
