<svg width="28" height="27" viewBox="0 0 28 27" fill="none" xmlns="http://www.w3.org/2000/svg">
<path d="M12.8153 0.863327C13.1882 -0.287776 14.8118 -0.287776 15.1848 0.863327L17.6357 8.42947C17.8025 8.94426 18.2807 9.29279 18.8203 9.29279H26.752C27.9586 9.29279 28.4604 10.8416 27.4842 11.553L21.0674 16.2291C20.6308 16.5473 20.448 17.1112 20.6148 17.6261L23.0658 25.1922C23.4387 26.3433 22.1252 27.3005 21.149 26.5891L14.7322 21.913C14.2956 21.5947 13.7044 21.5947 13.2678 21.913L6.85104 26.5891C5.8748 27.3005 4.56128 26.3433 4.93417 25.1922L7.38516 17.6261C7.55192 17.1112 7.36923 16.5473 6.93265 16.2291L0.515872 11.553C-0.460377 10.8416 0.0413498 9.29279 1.24805 9.29279H9.17967C9.71929 9.29279 10.1975 8.94426 10.3643 8.42947L12.8153 0.863327Z" fill="white"/>
</svg>
