<svg width="28" height="28" viewBox="0 0 28 28" fill="none" xmlns="http://www.w3.org/2000/svg">
<path d="M25.137 9.28134L25.1369 9.28114L25.1284 9.28463L24.3762 9.59334C24.1469 9.67219 23.8947 9.66626 23.67 9.57674C23.5639 9.53278 23.4689 9.46863 23.3909 9.3889V9.38886L23.3875 9.38558C23.3085 9.30854 23.2496 9.21579 23.2147 9.11507L23.2148 9.11504L23.2127 9.10961C23.1714 9.00072 23.1495 8.88618 23.1476 8.77084V8.77066C23.1457 8.65904 23.1716 8.54836 23.2235 8.44748L23.2279 8.43905L23.2314 8.43024C23.2717 8.32971 23.3367 8.23861 23.4218 8.16487L23.4286 8.159L23.4348 8.15255C23.5104 8.07419 23.6069 8.01497 23.7153 7.98164L23.7241 7.97895L23.7325 7.97549L24.4871 7.66569C24.6255 7.61388 24.7756 7.59547 24.9238 7.61233L24.9239 7.61235C25.073 7.62921 25.2147 7.68119 25.3365 7.76296V7.76298C25.458 7.84453 25.5555 7.95313 25.6209 8.07817C25.6858 8.20217 25.7174 8.339 25.7134 8.4765C25.7054 8.59588 25.6778 8.7134 25.6313 8.82498C25.5856 8.92759 25.5187 9.02108 25.4339 9.09979L25.4328 9.10082C25.3491 9.17976 25.2483 9.24151 25.137 9.28134Z" fill="white" stroke="white" stroke-width="0.4"/>
<path d="M23.2308 5.80516C23.2611 5.69924 23.2687 5.5889 23.2532 5.48058C23.2336 5.37017 23.1928 5.26389 23.1324 5.16718C23.0755 5.07829 22.997 5.00243 22.9027 4.94633L22.8948 4.94166L22.8874 4.93629C22.7968 4.87059 22.6917 4.82449 22.5792 4.80185L22.5675 4.7995L22.5676 4.79916C22.4575 4.7701 22.3421 4.76289 22.2289 4.77805C22.1152 4.79675 22.0077 4.83894 21.9139 4.90121L21.9125 4.90218V4.90217C21.8154 4.96537 21.7318 5.04458 21.6654 5.13558L21.6641 5.13734V5.13733L21.2039 5.75342C21.137 5.8507 21.0875 5.95733 21.0569 6.06912L23.2308 5.80516ZM23.2308 5.80516L23.2302 5.80745L23.2308 5.80516ZM23.2308 5.80516L23.2302 5.80745L23.2308 5.80516ZM23.2302 5.80745C23.2017 5.9119 23.1562 6.01178 23.0952 6.1035L22.6384 6.72506C22.5138 6.87306 22.343 6.9818 22.1485 7.03461C21.9546 7.08712 21.7485 7.08102 21.5589 7.01745L21.3792 6.93783C21.2889 6.87519 21.2126 6.79703 21.154 6.70786C21.095 6.6148 21.0543 6.5128 21.0333 6.40675M23.2302 5.80745L21.0333 6.40675L23.2302 5.80745ZM21.0333 6.40675C21.0189 6.29386 21.0269 6.17937 21.0569 6.06917L21.0333 6.40675Z" fill="white"/>
<path d="M23.2308 5.80516L23.2302 5.80745M23.2308 5.80516L23.2302 5.80745M23.2302 5.80745C23.2017 5.9119 23.1562 6.01178 23.0952 6.1035L22.6384 6.72506C22.5138 6.87306 22.343 6.9818 22.1485 7.03461C21.9546 7.08712 21.7485 7.08102 21.5589 7.01745L21.3792 6.93783C21.2889 6.87519 21.2126 6.79703 21.154 6.70786C21.095 6.6148 21.0543 6.5128 21.0333 6.40675M23.2302 5.80745L21.0333 6.40675M23.2308 5.80516C23.2611 5.69924 23.2687 5.5889 23.2532 5.48058C23.2336 5.37017 23.1928 5.26389 23.1324 5.16718C23.0755 5.07829 22.997 5.00243 22.9027 4.94633L22.8948 4.94166L22.8874 4.93629C22.7968 4.87059 22.6917 4.82449 22.5792 4.80185L22.5675 4.7995L22.5676 4.79916C22.4575 4.7701 22.3421 4.76289 22.2289 4.77805C22.1152 4.79675 22.0077 4.83894 21.9139 4.90121L21.9125 4.90218V4.90217C21.8154 4.96537 21.7318 5.04458 21.6654 5.13558L21.6641 5.13734V5.13733L21.2039 5.75342C21.137 5.8507 21.0875 5.95733 21.0569 6.06912L23.2308 5.80516ZM21.0333 6.40675C21.0189 6.29386 21.0269 6.17937 21.0569 6.06917L21.0333 6.40675Z" stroke="white" stroke-width="0.4"/>
<path d="M25.5115 11.5123V11.5122C25.4166 11.4506 25.3089 11.4083 25.1951 11.3883L25.1886 11.3871L25.1887 11.387L24.4447 11.2308C24.2099 11.1956 23.9701 11.2436 23.771 11.3644C23.5775 11.4959 23.4436 11.6893 23.3921 11.906L23.391 11.9106C23.3412 12.0996 23.3639 12.2995 23.4559 12.4749L23.4588 12.4804L23.4587 12.4805C23.5405 12.6491 23.684 12.7862 23.8652 12.8649C23.9098 12.8726 23.9553 12.8746 24.0005 12.8709L24.0263 12.8688L24.0518 12.8733L24.8144 13.0091L24.8194 13.01V13.0101C24.934 13.0335 25.0524 13.0347 25.1674 13.0134L25.1676 13.0133C25.2826 12.9921 25.3914 12.949 25.4876 12.8869L25.4888 12.8861C25.5876 12.8234 25.6716 12.7426 25.7363 12.6491C25.8008 12.5557 25.8447 12.4514 25.8658 12.3424V12.3423C25.9056 12.1367 25.8634 11.9234 25.746 11.7444L25.5115 11.5123ZM25.5115 11.5123C25.6063 11.5738 25.686 11.653 25.746 11.7443L25.5115 11.5123Z" fill="white" stroke="white" stroke-width="0.4"/>
<path d="M18.1398 2.86763L18.1399 2.8677C18.2298 2.9613 18.2978 3.0711 18.3402 3.19L22.4097 17.0029C22.4412 17.1251 22.4458 17.2519 22.4232 17.3755H22.4231C22.4003 17.5002 22.3502 17.6194 22.2755 17.7255L22.274 17.7277C22.1776 17.8688 22.0289 17.9733 21.8547 18.0192H21.6108H21.6092L13.0453 18.0859L12.7802 18.088L12.8549 18.3423L14.1967 22.9086L14.1974 22.9108C14.2608 23.1176 14.2361 23.34 14.1277 23.5305C14.019 23.7212 13.8341 23.8658 13.6109 23.9294C13.6108 23.9294 13.6106 23.9294 13.6105 23.9295L10.5116 24.7936C10.4354 24.8017 10.3584 24.8011 10.2822 24.7919L10.2677 24.7902L10.2531 24.7906C10.1125 24.7942 9.97422 24.7603 9.85393 24.6933L9.85395 24.6932L9.8503 24.6913C9.74853 24.6373 9.65968 24.5648 9.58849 24.4783C9.51747 24.3921 9.46552 24.2936 9.43541 24.189L9.43496 24.1874L7.99985 19.3538L7.94897 19.1825L7.773 19.2139C6.54203 19.4334 5.27006 19.2061 4.20676 18.5777C3.14368 17.9495 2.36704 16.9665 2.02606 15.8232L2.02593 15.8227L1.66424 14.6199L1.66413 14.6196C1.29835 13.4113 1.44473 12.1141 2.0728 11.0069C2.70087 9.89977 3.76134 9.07013 5.02769 8.70002L8.64326 7.69791L8.66893 7.6908L8.69185 7.67721L17.0691 2.71015L17.0692 2.71037L17.0776 2.70481C17.1825 2.63529 17.3054 2.59256 17.434 2.58168C17.5627 2.57079 17.6918 2.59221 17.8086 2.64335V2.64339L17.8123 2.64493C17.9374 2.69675 18.0488 2.7728 18.1398 2.86763ZM11.1147 18.4952L11.0579 18.308L10.8694 18.3607L9.79598 18.6614L9.59917 18.7165L9.65856 18.9121L10.8253 22.7544L10.8822 22.9417L11.0707 22.8889L12.1441 22.5881L12.3409 22.533L12.2815 22.3374L11.1147 18.4952Z" fill="white" stroke="white" stroke-width="0.4"/>
<path d="M18.1398 2.86763L18.1399 2.8677C18.2298 2.9613 18.2978 3.0711 18.3402 3.19L22.4097 17.0029C22.4412 17.1251 22.4458 17.2519 22.4232 17.3755H22.4231C22.4003 17.5002 22.3502 17.6194 22.2755 17.7255L22.274 17.7277C22.1776 17.8688 22.0289 17.9733 21.8547 18.0192H21.6108H21.6092L13.0453 18.0859L12.7802 18.088L12.8549 18.3423L14.1967 22.9086L14.1974 22.9108C14.2608 23.1176 14.2361 23.34 14.1277 23.5305C14.019 23.7212 13.8341 23.8658 13.6109 23.9294C13.6108 23.9294 13.6106 23.9294 13.6105 23.9295L10.5116 24.7936C10.4354 24.8017 10.3584 24.8011 10.2822 24.7919L10.2677 24.7902L10.2531 24.7906C10.1125 24.7942 9.97422 24.7603 9.85393 24.6933L9.85395 24.6932L9.8503 24.6913C9.74853 24.6373 9.65968 24.5648 9.58849 24.4783C9.51747 24.3921 9.46552 24.2936 9.43541 24.189L9.43496 24.1874L7.99985 19.3538L7.94897 19.1825L7.773 19.2139C6.54203 19.4334 5.27006 19.2061 4.20676 18.5777C3.14368 17.9495 2.36704 16.9665 2.02606 15.8232L2.02593 15.8227L1.66424 14.6199L1.66413 14.6196C1.29835 13.4113 1.44473 12.1141 2.0728 11.0069C2.70087 9.89977 3.76134 9.07013 5.02769 8.70002L8.64326 7.69791L8.66893 7.6908L8.69185 7.67721L17.0691 2.71015L17.0692 2.71037L17.0776 2.70481C17.1825 2.63529 17.3054 2.59256 17.434 2.58168C17.5627 2.57079 17.6918 2.59221 17.8086 2.64335V2.64339L17.8123 2.64493C17.9374 2.69675 18.0488 2.7728 18.1398 2.86763ZM11.1147 18.4952L11.0579 18.308L10.8694 18.3607L9.79598 18.6614L9.59917 18.7165L9.65856 18.9121L10.8253 22.7544L10.8822 22.9417L11.0707 22.8889L12.1441 22.5881L12.3409 22.533L12.2815 22.3374L11.1147 18.4952Z" stroke="white" stroke-width="0.4"/>
</svg>
