<svg width="25" height="28" viewBox="0 0 25 28" fill="none" xmlns="http://www.w3.org/2000/svg">
<path d="M24.7858 13.4306L19.2914 7.08153C18.9659 6.79663 18.4367 6.79663 18.1518 7.12215C17.9075 7.40705 17.8669 7.81409 18.0703 8.1396L22.3844 13.1457H7.52895C7.08128 13.1457 6.71484 13.5121 6.71484 13.9598C6.71484 14.4075 7.08126 14.7739 7.52895 14.7739H22.3844L18.0703 19.7799C17.7854 20.1054 17.7854 20.594 18.1109 20.8789L18.1515 20.9196C18.2736 21.0823 18.477 21.1638 18.6807 21.1229C18.925 21.1229 19.1284 21.0414 19.2911 20.838L24.7858 14.4887C25.0707 14.204 25.0707 13.7155 24.7858 13.4306L24.7858 13.4306Z" fill="white"/>
<path d="M12.3319 19.2511C11.8842 19.2511 11.5178 19.6175 11.5178 20.0652V25.0713C11.5584 25.7226 11.0295 26.2515 10.3782 26.2924H10.2967H2.84865C2.15671 26.2924 1.62749 25.7633 1.62749 25.0713L1.62777 2.84904C1.62777 2.1571 2.15696 1.62789 2.84893 1.62789H10.2969C10.9483 1.58727 11.4771 2.11617 11.5181 2.76749V2.84901L11.5178 7.85507C11.5178 8.30273 11.8842 8.66917 12.3319 8.66917C12.7796 8.66917 13.146 8.30275 13.146 7.85507V2.84901C13.146 1.26175 11.8843 0 10.297 0H2.84901C1.26175 0 0 1.26175 0 2.84901V25.0713C0 26.6585 1.26175 27.9203 2.84901 27.9203H10.297C11.8843 27.9203 13.146 26.6585 13.146 25.0713L13.1463 20.0652C13.1463 19.6175 12.7799 19.2511 12.3322 19.2511L12.3319 19.2511Z" fill="white"/>
</svg>
