<svg width="28" height="28" viewBox="0 0 28 28" fill="none" xmlns="http://www.w3.org/2000/svg">
<path d="M21.183 25.1516V20.6016H6.48301V25.1516H5.08301V26.6682H22.583V25.1516H21.183Z" fill="white"/>
<path d="M22.9333 11.849C25.2667 9.51562 26.55 6.4823 26.6667 3.33229V2.51562H23.6333V2.74897C23.6333 3.21564 23.6333 3.56562 23.5167 4.03229H25.0333C24.8 6.59896 23.6333 8.93229 21.7667 10.799C20.1333 12.4323 18.15 13.4823 16.05 13.8323V12.3156C15.35 12.4323 14.5333 12.549 13.8333 12.549C13.0167 12.549 12.3167 12.4323 11.6167 12.3156V13.8323C9.4 13.3656 7.41667 12.3156 5.9 10.799C4.03333 8.93229 2.86667 6.59896 2.63333 4.03229H4.15C4.15 3.56562 4.03333 3.21564 4.03333 2.74897V2.51562H1V3.33229C1.11667 6.59896 2.51667 9.63229 4.73333 11.849C6.6 13.7156 8.93333 14.999 11.5 15.349V19.0823H16.05V15.349C18.6167 14.8823 21.0667 13.7156 22.9333 11.849Z" fill="white"/>
<path d="M22.1165 1H5.5498V2.75C5.5498 7.3 9.28313 11.0333 13.8331 11.0333C18.3831 11.0333 22.1165 7.3 22.1165 2.75V1Z" fill="white"/>
</svg>
