<svg width="30" height="28" viewBox="0 0 30 28" fill="none" xmlns="http://www.w3.org/2000/svg">
<path d="M26.2839 27.9999H16.0264V17.0103H27.0159V27.2672C27.0159 27.6718 26.6877 28 26.2836 28L26.2839 27.9999Z" fill="white"/>
<path d="M3.02233 27.9999C2.61826 27.9999 2.29004 27.6717 2.29004 27.2671V17.0102H13.2796V27.9998L3.02233 27.9999Z" fill="white"/>
<path d="M28.574 14.2629H16.0273V7.85239H28.574C28.9781 7.85239 29.3063 8.18059 29.3063 8.58514V13.5307C29.3065 13.9346 28.9783 14.263 28.5743 14.263L28.574 14.2629Z" fill="white"/>
<path d="M0.732287 14.263C0.32822 14.263 0 13.9345 0 13.5304V8.58486C0 8.18034 0.328203 7.85211 0.732287 7.85211H13.279V14.2627L0.732287 14.263Z" fill="white"/>
<path d="M8.87896 7.8524H20.4273C22.1907 7.04063 23.5789 5.773 24.2415 4.54513C24.862 3.39606 24.8918 2.28722 24.3112 1.40393C23.6925 0.51174 22.5555 0.000232677 21.1939 0.000232677C18.6932 0.000232677 15.8367 1.70483 14.6537 5.37941C13.4699 1.70466 10.6137 0 8.11284 0C6.75072 0 5.61415 0.511502 4.98205 1.42387C4.4149 2.28745 4.44443 3.39583 5.06518 4.54467C5.72775 5.77253 7.11574 7.04063 8.87919 7.8524H8.87896ZM21.1931 1.83142C21.9237 1.83142 22.5427 2.0674 22.7928 2.42787C23.0449 2.81241 22.7626 3.42792 22.6292 3.67458C21.7259 5.34603 18.964 7.06953 16.1454 6.86532C16.8645 3.41408 19.1923 1.83142 21.1931 1.83142H21.1931ZM6.49906 2.44828C6.76321 2.06761 7.38171 1.83165 8.11237 1.83165C10.1132 1.83165 12.441 3.41408 13.1601 6.86532C13 6.87713 12.8401 6.88258 12.6797 6.88258H12.6788C10.0055 6.88258 7.52746 5.25131 6.67586 3.67434C6.54322 3.4279 6.26089 2.81262 6.49915 2.44828L6.49906 2.44828Z" fill="white"/>
</svg>
