<svg width="24" height="28" viewBox="0 0 24 28" fill="none" xmlns="http://www.w3.org/2000/svg">
<path d="M23.0996 4.19992C21.0769 4.19992 18.8997 3.10473 18.8997 0.699934C18.8997 0.313461 18.5859 0 18.1997 0H5.59978C5.21331 0 4.89985 0.313717 4.89985 0.699934C4.89985 3.10473 2.72261 4.19992 0.699934 4.19992C0.313461 4.19992 0 4.51363 0 4.89985C0 14.7304 9.5367e-07 23.221 11.6362 27.9485C11.7204 27.9829 11.81 28 11.8996 28C11.9892 28 12.0788 27.9829 12.1633 27.9485C23.7995 23.2212 23.7995 14.7311 23.7995 4.89985C23.7995 4.51362 23.486 4.19992 23.0995 4.19992H23.0996ZM15.7496 17.1499C15.7496 17.5363 15.4359 17.8498 15.0497 17.8498L8.74971 17.85C8.36323 17.85 8.04977 17.5363 8.04977 17.1501L8.04953 12.9499C8.04953 12.5635 8.36325 12.25 8.74946 12.25H9.09956V10.8501C9.09956 9.3062 10.3557 8.05008 11.8996 8.05008C13.4435 8.05008 14.6997 9.3062 14.6997 10.8501V12.25H15.0498C15.4362 12.25 15.7497 12.5637 15.7497 12.9499L15.7496 17.1499ZM13.2994 10.8499V12.2498H10.4994V10.8499C10.4994 10.0777 11.1273 9.45002 11.8993 9.45002C12.6717 9.44977 13.2994 10.0777 13.2994 10.8499H13.2994Z" fill="white"/>
</svg>
