<svg width="35" height="35" viewBox="0 0 35 35" fill="none" xmlns="http://www.w3.org/2000/svg">
<path d="M17.5 6.94066e-05C12.8586 6.94066e-05 8.4076 1.8439 5.12564 5.12571C1.84383 8.40753 0 12.8591 0 17.5001C0 22.1411 1.84383 26.5925 5.12564 29.8744C8.40746 33.1562 12.859 35.0001 17.5 35.0001C22.141 35.0001 26.5924 33.1562 29.8744 29.8744C33.1562 26.5926 35 22.1411 35 17.5001C35 14.4282 34.1913 11.4104 32.6554 8.75003C31.1195 6.08968 28.9103 3.8805 26.25 2.34459C23.5896 0.808684 20.5717 0 17.4999 0L17.5 6.94066e-05ZM17.5 6.22245C19.0983 6.22245 20.631 6.85722 21.7611 7.98732C22.8911 9.11742 23.5259 10.6501 23.5259 12.2484C23.5259 13.8464 22.8912 15.3794 21.7611 16.5092C20.631 17.6392 19.0983 18.2743 17.5 18.2743C15.9017 18.2743 14.369 17.6393 13.2389 16.5092C12.1089 15.3793 11.4741 13.8464 11.4741 12.2484C11.4741 10.65 12.1088 9.1174 13.2389 7.98732C14.369 6.85725 15.9017 6.22245 17.5 6.22245ZM17.5 32.2781C15.0431 32.277 12.6253 31.6634 10.4653 30.4929C8.30517 29.3221 6.47107 27.6316 5.12912 25.5737C6.01968 22.7037 7.14357 20.0241 9.83073 18.3556C10.2593 18.0979 10.7566 17.9772 11.2555 18.0098C11.7546 18.0426 12.2318 18.227 12.6232 18.5385C14.0148 19.6262 15.7305 20.2176 17.4971 20.2184C19.2638 20.2189 20.9799 19.6292 22.3726 18.5422C22.7638 18.2308 23.2409 18.0463 23.74 18.0135C24.2392 17.981 24.7361 18.1017 25.1648 18.3594C27.8443 20.0315 28.9758 22.7072 29.8705 25.5733V25.5736C28.5285 27.6314 26.6945 29.322 24.5343 30.4927C22.3745 31.6632 19.9567 32.2769 17.4996 32.278L17.5 32.2781Z" fill="#EB266F"/>
</svg>
