<svg width="30" height="23" viewBox="0 0 30 23" fill="none" xmlns="http://www.w3.org/2000/svg">
<path d="M25.5831 0.894862C25.11 0.421765 24.3213 0.421765 23.848 0.894862C23.3749 1.36796 23.3749 2.15658 23.848 2.62994C26.2139 4.99587 27.5074 8.11896 27.5074 11.4943C27.5074 14.8381 26.2139 17.9927 23.848 20.3587C23.3749 20.8318 23.3749 21.6204 23.848 22.0937C24.1004 22.3461 24.4157 22.4408 24.7313 22.4408C25.0468 22.4408 25.3621 22.3147 25.6145 22.0937C28.4536 19.2547 29.9994 15.5007 29.9994 11.4944C29.9679 7.48799 28.4221 3.70255 25.5831 0.894975L25.5831 0.894862Z" fill="white"/>
<path d="M2.46057 11.4943C2.46057 8.1505 3.754 4.99587 6.11994 2.62994C6.59303 2.15684 6.59303 1.36822 6.11994 0.894862C5.64684 0.421765 4.85822 0.421765 4.38486 0.894862C1.54586 3.70244 0 7.48793 0 11.4942C0 15.5006 1.5458 19.2545 4.38486 22.0936C4.63726 22.346 4.95258 22.4406 5.26815 22.4406C5.58369 22.4406 5.899 22.3146 6.15143 22.0936C6.62452 21.6205 6.62452 20.8319 6.15143 20.3586C3.754 17.9926 2.46057 14.838 2.46057 11.4942V11.4943Z" fill="white"/>
<path d="M22.4922 3.98666C22.0191 3.51356 21.2305 3.51356 20.7572 3.98666C20.2841 4.45976 20.2841 5.24838 20.7572 5.72173C22.303 7.26753 23.1546 9.31795 23.1546 11.4946C23.1546 13.6713 22.3028 15.7217 20.7572 17.2359C20.2841 17.709 20.2841 18.4977 20.7572 18.971C21.0096 19.2234 21.3249 19.318 21.6404 19.318C21.956 19.318 22.2713 19.1919 22.5237 18.971C24.5112 16.9836 25.6152 14.3023 25.6152 11.4631C25.5837 8.65555 24.4795 5.9741 22.4922 3.98677V3.98666Z" fill="white"/>
<path d="M6.81385 11.4946C6.81385 9.31789 7.66564 7.26753 9.21127 5.72173C9.68437 5.24864 9.68437 4.46001 9.21127 3.98666C8.73817 3.51356 7.94955 3.51356 7.4762 3.98666C5.48898 5.9741 4.38477 8.6556 4.38477 11.4946C4.38477 14.3021 5.52041 17.0466 7.50785 19.0024C7.76025 19.2234 8.0441 19.3495 8.35965 19.3495C8.67519 19.3495 8.99051 19.2234 9.24293 18.971C9.71602 18.4979 9.71602 17.7093 9.24293 17.2359C7.69713 15.7533 6.81385 13.6395 6.81385 11.4946V11.4946Z" fill="white"/>
<path d="M19.432 7.07823C18.9589 6.60513 18.1702 6.57344 17.6969 7.07823C17.2238 7.55132 17.1921 8.33995 17.6969 8.8133C18.4224 9.5388 18.8011 10.4852 18.8011 11.4948C18.8011 12.5044 18.4226 13.4506 17.6969 14.1763C17.2238 14.6494 17.2238 15.438 17.6969 15.9114C17.9493 16.1323 18.2331 16.2584 18.5487 16.2584C18.8642 16.2584 19.1795 16.1323 19.432 15.8799C20.5991 14.6811 21.2616 13.1355 21.2616 11.4636C21.2299 9.82273 20.599 8.27693 19.432 7.07831V7.07823Z" fill="white"/>
<path d="M12.303 7.07797C11.8299 6.60487 11.0413 6.60487 10.5679 7.07797C9.36914 8.27676 8.73828 9.82239 8.73828 11.4943C8.73828 13.1661 9.40086 14.7435 10.5679 15.9106C10.8203 16.163 11.1356 16.2576 11.4512 16.2576C11.7668 16.2576 12.0821 16.1315 12.3345 15.9106C12.8076 15.4375 12.8076 14.6488 12.3345 14.1755C11.5775 13.45 11.1991 12.5038 11.1991 11.4942C11.1991 10.4846 11.6092 9.53843 12.3033 8.8127C12.7764 8.33961 12.7764 7.55098 12.3031 7.07785L12.303 7.07797Z" fill="white"/>
<path d="M16.8453 11.494C16.8453 12.5218 16.012 13.3551 14.9842 13.3551C13.9564 13.3551 13.123 12.5218 13.123 11.494C13.123 10.4661 13.9564 9.63281 14.9842 9.63281C16.012 9.63281 16.8453 10.4661 16.8453 11.494Z" fill="white"/>
</svg>
