<svg width="205" height="59" viewBox="0 0 205 59" fill="none" xmlns="http://www.w3.org/2000/svg">
<path d="M0 10C0 4.47715 4.47715 0 10 0H195C200.523 0 205 4.47715 205 10V49C205 54.5228 200.523 59 195 59H10C4.47716 59 0 54.5228 0 49V10ZM13.5193 3.52239C7.99646 3.52239 3.51931 7.99954 3.51931 13.5224V45.4776C3.51931 51.0005 7.99647 55.4776 13.5193 55.4776H191.481C197.004 55.4776 201.481 51.0005 201.481 45.4776V13.5224C201.481 7.99955 197.004 3.52239 191.481 3.52239H13.5193Z" fill="url(#paint0_linear_497_8607)"/>
<path d="M47.6807 35.8819C47.3099 34.8688 46.7804 33.9892 46.0918 33.2427C45.6151 32.7095 44.8471 32.0963 43.7878 31.4031C42.6225 30.8166 41.5897 30.3634 40.6893 30.0435C41.3249 29.6702 42.0135 29.2437 42.755 28.7638C43.4965 28.124 44.0527 27.5107 44.4234 26.9243C44.9001 26.2844 45.2974 25.5113 45.6152 24.6049C45.933 23.6451 46.0919 22.6054 46.0919 21.4857C46.0919 18.4999 44.9795 16.1271 42.755 14.3676C40.5305 12.6081 37.5114 11.7283 33.6979 11.7283H19.0001V17.6468H32.9036C34.9163 17.6468 36.5583 18.0733 37.8295 18.9265C38.9418 19.7796 39.4979 21.006 39.4979 22.6055C39.4979 24.4185 38.8623 25.7247 37.5911 26.5245C36.267 27.3776 34.5456 27.8041 32.4269 27.8041H19.0003V33.4027H33.8567C36.399 33.4027 38.3322 33.856 39.6564 34.7623C40.9276 35.7221 41.5631 37.0017 41.5631 38.6013C41.5631 40.3075 40.9276 41.6138 39.6564 42.5202C38.3322 43.4266 36.5579 43.8798 34.3333 43.8798H19V49.7983H34.254C36.3197 49.7983 38.2265 49.5583 39.9743 49.0784C41.7752 48.5452 43.2316 47.8787 44.344 47.079C45.4563 46.2793 46.4097 45.1861 47.2041 43.7999C47.8397 42.5202 48.1575 41.0272 48.1575 39.3211C48.1575 37.9881 47.9985 36.8416 47.6807 35.8819ZM66.073 26.9159V11H59.3993V49.2302H66.073V26.9159ZM76.6789 23.0854C77.6323 20.7394 79.0094 18.7399 80.8102 17.087C82.4521 15.4341 84.5708 14.1011 87.1661 13.088C89.7614 12.0749 92.4891 11.5684 95.3493 11.5684H104.168V17.6468H95.4287C93.363 17.6468 91.5358 17.9933 89.9468 18.6865C88.252 19.3797 86.8748 20.2861 85.8156 21.4058C84.7033 22.4721 83.803 23.8585 83.1143 25.5646C82.4787 27.1109 82.1609 28.8437 82.1609 30.7632C82.1609 32.6827 82.4787 34.4156 83.1143 35.9618C83.7499 37.5614 84.6503 38.9476 85.8156 40.1207C86.8748 41.1871 88.252 42.0668 89.9468 42.76C91.6416 43.3998 93.469 43.7198 95.4287 43.7198H104.168V49.7982H95.3493C92.3833 49.7982 89.682 49.3183 87.2455 48.3585C84.7032 47.2922 82.5581 45.9325 80.8102 44.2795C79.0094 42.5734 77.6323 40.5472 76.6789 38.2012C75.6726 35.7485 75.1694 33.2425 75.1694 30.6832C75.1694 27.9638 75.6726 25.4314 76.6789 23.0854ZM141.191 49.7983H148.341L134.517 11.6479H127.287L135.311 34.4423L141.191 49.7983ZM111.954 49.7983H118.945L127.208 29.4834L123.792 20.3657L111.954 49.7983ZM175.989 11.7281C173.076 11.7281 170.375 12.2078 167.885 13.1676C165.449 14.1273 163.33 15.4603 161.529 17.1666C159.782 18.7661 158.405 20.7922 157.398 23.245C156.551 25.3245 156.074 27.5905 155.968 30.0431V32.4426H162.96V30.0431C163.065 28.2302 163.357 26.764 163.833 25.6443C164.469 24.098 165.343 22.7118 166.455 21.4855C167.779 20.2591 169.156 19.3527 170.587 18.7662C172.228 18.1264 174.029 17.8065 175.989 17.8065H186V11.7281H175.989ZM179.008 29.7232L179.009 31.2428H179.088C178.982 32.9489 178.664 34.5219 178.135 35.9615C177.446 37.6144 176.572 38.9741 175.513 40.0405C174.348 41.2136 172.971 42.12 171.382 42.7598C169.74 43.3996 167.939 43.7196 165.979 43.7196H155.968V49.798H165.979C168.892 49.798 171.593 49.3181 174.083 48.3583C176.519 47.3985 178.638 46.0655 180.439 44.3593C182.292 42.4931 183.669 40.4671 184.57 38.281C185.523 36.1482 186 33.8022 186 31.2429V29.7232H179.008Z" fill="url(#paint1_linear_497_8607)"/>
<defs>
<linearGradient id="paint0_linear_497_8607" x1="-29" y1="33.0288" x2="243.5" y2="35.0271" gradientUnits="userSpaceOnUse">
<stop offset="0.0001" stop-color="#910438"/>
<stop offset="1" stop-color="#EB266F"/>
</linearGradient>
<linearGradient id="paint1_linear_497_8607" x1="-1.9791" y1="33.9212" x2="204.897" y2="39.6296" gradientUnits="userSpaceOnUse">
<stop stop-color="#EB266F"/>
<stop offset="1" stop-color="#860736"/>
</linearGradient>
</defs>
</svg>
