<svg width="27" height="27" viewBox="0 0 27 27" fill="none" xmlns="http://www.w3.org/2000/svg">
<path fill-rule="evenodd" clip-rule="evenodd" d="M23.1806 19.0588C25.2898 19.0588 27 17.346 27 15.2406V11.7594C27 9.65084 25.2866 7.94117 23.1806 7.94117H22.8782C20.7687 7.94117 19.0588 6.2278 19.0588 4.12177V3.81939C19.0588 1.71024 17.346 0 15.2406 0H11.7594C9.65085 0 7.94117 1.71337 7.94117 3.81939V4.12177C7.94117 6.23125 6.2278 7.94117 4.12177 7.94117H3.8194C1.71024 7.94117 0 9.65397 0 11.7594V15.2406C0 17.3492 1.71337 19.0588 3.8194 19.0588H4.12177C6.23125 19.0588 7.94117 20.7722 7.94117 22.8782V23.1806C7.94117 25.2898 9.65397 27 11.7594 27H15.2406C17.3492 27 19.0588 25.2866 19.0588 23.1806V22.8782C19.0588 20.7687 20.7722 19.0588 22.8782 19.0588H23.1806Z" fill="white"/>
</svg>
