<svg width="24" height="33" viewBox="0 0 24 33" fill="none" xmlns="http://www.w3.org/2000/svg">
<path d="M11.1283 32.319C11.1283 32.319 0 32.3611 0 23.0572C0 13.7532 9.89742 11.2157 9.89742 3.99221C9.89742 2.0086 9.35553 1.13748 8.18951 0C13.4483 0.156643 17.6317 5.31207 17.6317 12.6322C17.6317 14.0872 17.0898 17.0982 16.4397 17.7324C15.7893 18.367 20.6664 14.8526 20.6664 11.7865C20.6664 11.7865 24 14.8781 24 21.5686C24 28.2592 16.6477 33 13.1535 33C15.3471 30.8601 16.8386 28.8258 16.8386 26.4194C16.8386 21.5643 12.6682 21.9873 11.6364 19.5132C11.5665 19.3471 11.5154 19.1745 11.4843 18.9975C11.3866 18.3388 11.5578 17.6692 11.9612 17.1326L13.097 15.534C13.097 15.534 6.6202 17.3523 6.6202 24.1191C6.6202 30.8855 10.0705 31.2831 11.1283 32.319Z" fill="white"/>
</svg>
