<svg width="25" height="21" viewBox="0 0 25 21" fill="none" xmlns="http://www.w3.org/2000/svg">
<path d="M24.8745 2.53085C24.0797 2.89314 23.2012 3.12757 22.3436 3.25544C22.741 3.1915 23.3476 2.4456 23.5777 2.12593C23.9333 1.65707 24.247 1.1456 24.4143 0.570184C24.4353 0.527561 24.4562 0.463626 24.4143 0.442315C24.3516 0.421003 24.3307 0.421003 24.2888 0.463626C23.3267 0.996415 22.3436 1.35871 21.2978 1.63576C21.2142 1.65707 21.1514 1.63576 21.0887 1.57183C21.005 1.46527 20.9213 1.38002 20.8167 1.29478C20.3775 0.911169 19.8964 0.612807 19.3735 0.37838C18.6624 0.0800184 17.9094 -0.0478509 17.1355 0.0160837C16.4034 0.0587068 15.6714 0.271822 15.0229 0.634119C14.3745 0.975103 13.7889 1.46527 13.3078 2.06199C12.8267 2.65872 12.4712 3.38331 12.2829 4.15052C12.1156 4.87512 12.1156 5.59971 12.2202 6.34561C12.2411 6.47348 12.2202 6.49479 12.1156 6.47348C7.99508 5.85545 4.58574 4.34233 1.80387 1.12428C1.72021 0.975103 1.65746 0.975103 1.55288 1.12428C0.339735 2.97839 0.92539 5.962 2.45228 7.41119C2.66144 7.60299 2.8706 7.7948 3.07976 7.9866C2.9961 8.00791 1.99212 7.90136 1.09272 7.41119C0.967223 7.32594 0.904474 7.36857 0.904474 7.51775C0.883558 7.70955 0.904474 7.90136 0.946307 8.11447C1.17639 9.98989 2.45228 11.7374 4.20924 12.3981C4.41841 12.4833 4.64848 12.5686 4.87856 12.6112C4.48115 12.6965 4.06283 12.7604 2.93335 12.6751C2.78694 12.6538 2.7451 12.7178 2.78694 12.8669C3.6445 15.2538 5.50605 15.9571 6.88652 16.362C7.07477 16.4047 7.26302 16.4047 7.45126 16.4473C7.43035 16.4686 7.43035 16.4686 7.40943 16.4899C6.94927 17.2145 5.35964 17.7473 4.60665 18.003C3.24709 18.4932 1.78296 18.7063 0.360651 18.5571C0.130573 18.5145 0.0887402 18.5358 0.0259914 18.5571C-0.0367574 18.5998 0.0259914 18.6424 0.0887402 18.7063C0.381568 18.8981 0.674395 19.0686 0.967223 19.2391C1.86662 19.7293 2.82877 20.1129 3.81183 20.3899C8.9154 21.8178 14.6674 20.7735 18.495 16.8948C21.507 13.8473 22.5528 9.6489 22.5528 5.42922C22.5528 5.25872 22.741 5.17348 22.8665 5.08823C23.6404 4.49151 24.2888 3.76692 24.8745 2.97839C25 2.8079 25 2.6374 25 2.57347C25 2.55216 25 2.55216 25 2.55216C24.9791 2.46691 24.9791 2.48822 24.8745 2.53085Z" fill="#EB266F"/>
</svg>
