<svg width="25" height="25" viewBox="0 0 25 25" fill="none" xmlns="http://www.w3.org/2000/svg">
<path d="M0 25L1.78852 18.3137C0.766509 16.4902 0.235848 14.4314 0.235848 12.3529C0.235848 5.54902 5.79796 0 12.6179 0C19.4379 0 25 5.54902 25 12.3529C25 19.1569 19.4379 24.7059 12.6179 24.7059C10.5739 24.7059 8.54953 24.1961 6.74135 23.2157L0 25ZM7.07547 20.6863L7.48821 20.9412C9.04088 21.8627 10.8097 22.3529 12.6179 22.3529C18.1604 22.3529 22.6612 17.8627 22.6612 12.3333C22.6612 6.80392 18.1604 2.31373 12.6179 2.31373C7.07547 2.33333 2.57469 6.82353 2.57469 12.3529C2.57469 14.1765 3.08569 15.9804 4.04874 17.549L4.30425 17.9804L3.30189 21.7059L7.07547 20.6863Z" fill="#EB266F"/>
<path fill-rule="evenodd" clip-rule="evenodd" d="M17.2175 14.0591C16.7065 13.7454 16.0382 13.412 15.4486 13.6669C14.9965 13.863 14.7017 14.5689 14.3873 14.9415C14.23 15.1375 14.0532 15.1571 13.8173 15.0591C12.0877 14.3728 10.7709 13.216 9.80787 11.6277C9.65064 11.3728 9.67029 11.1964 9.86683 10.9611C10.1616 10.6277 10.5154 10.2356 10.594 9.78459C10.6727 9.33361 10.4565 8.8042 10.2599 8.39243C10.0241 7.88263 9.74891 7.13753 9.21825 6.84341C8.74655 6.5689 8.11762 6.72577 7.68523 7.07871C6.95803 7.68655 6.5846 8.60812 6.60425 9.54929C6.60425 9.8042 6.64356 10.0787 6.70252 10.3336C6.85976 10.9415 7.13491 11.5101 7.44938 12.0591C7.68523 12.4709 7.96039 12.863 8.23554 13.2552C9.15929 14.5101 10.3189 15.5885 11.6357 16.412C12.3039 16.8238 13.0115 17.1767 13.7583 17.412C14.5838 17.6865 15.3307 17.9807 16.2348 17.8042C17.1782 17.6277 18.1019 17.0395 18.4753 16.1375C18.5932 15.863 18.6326 15.5689 18.5736 15.2944C18.495 14.6865 17.6892 14.3532 17.2175 14.0591Z" fill="#EB266F"/>
</svg>
